<svg width="184" height="184" viewBox="0 0 184 184" fill="none" xmlns="http://www.w3.org/2000/svg">
<rect width="183.331" height="183.331" rx="91.6654" fill="#00653C"/>
<path d="M98.8501 77.3299L95.9956 98.6273L105.646 77.3547L125.594 77.4276C127.891 77.436 129.252 80.0017 127.971 81.9087L79.7131 153.725C78.0129 156.255 74.0615 154.75 74.4754 151.73L84.3375 79.7733C84.5333 78.3448 85.7563 77.282 87.1981 77.2872L98.8501 77.3299Z" fill="white"/>
<path d="M95.3253 103.637C95.1333 105.069 93.9086 106.137 92.4636 106.132L54.0597 105.991C51.7654 105.983 50.4036 103.424 51.6786 101.516L99.7406 29.6104C101.434 27.0767 105.388 28.5706 104.983 31.5911L95.3253 103.637Z" fill="white"/>
</svg>
