<svg width="2588" height="1749" viewBox="0 0 2588 1749" fill="none" xmlns="http://www.w3.org/2000/svg">
<g clip-path="url(#clip0_438_533)">
<rect width="2588" height="1749" rx="64" fill="black"/>
<g clip-path="url(#clip1_438_533)">
<path d="M193.155 -1846.87V5258.78" stroke="url(#paint0_linear_438_533)" stroke-width="3.43335"/>
<path d="M1029.55 -1859.43V5246.22" stroke="url(#paint1_linear_438_533)" stroke-width="3.43335"/>
<path d="M620.23 -1863.62V5242.03" stroke="url(#paint2_linear_438_533)" stroke-width="3.43335"/>
<path d="M1466 -1817.56V5288.09" stroke="url(#paint3_linear_438_533)" stroke-width="3.43335"/>
<path d="M-4404.18 678.307H2701.47" stroke="url(#paint4_linear_438_533)" stroke-width="3.43335"/>
<path d="M-4404.18 200.578H2701.47" stroke="url(#paint5_linear_438_533)" stroke-width="3.43335"/>
<g filter="url(#filter0_f_438_533)">
<path d="M-1806.45 1772.85C-2417.03 846.229 -1913.18 -563.098 -681.069 -1374.97C551.04 -2186.85 2044.83 -2093.83 2655.41 -1167.21C3265.99 -240.586 2762.14 1168.74 1530.03 1980.62C297.919 2792.49 -1195.87 2699.47 -1806.45 1772.85Z" fill="url(#paint6_radial_438_533)"/>
</g>
</g>
<path d="M832.608 828.397L788.119 964H752.28L813.06 800.423H835.866L832.608 828.397ZM869.571 964L824.969 828.397L821.374 800.423H844.405L905.522 964H869.571ZM867.548 903.108V929.509H781.153V903.108H867.548ZM979.895 800.423V964H946.304V800.423H979.895ZM1030.23 800.423V826.824H896.759V800.423H1030.23ZM1124.37 800.423V964H1090.78V800.423H1124.37ZM1174.71 800.423V826.824H1041.24V800.423H1174.71ZM1229.76 800.423V964H1196.16V800.423H1229.76ZM1276.72 800.423H1305.25L1347.27 920.522L1389.29 800.423H1417.82L1358.73 964H1335.81L1276.72 800.423ZM1261.33 800.423H1289.75L1294.92 917.488V964H1261.33V800.423ZM1404.79 800.423H1433.33V964H1399.62V917.488L1404.79 800.423ZM1498.71 800.423V964H1465.12V800.423H1498.71ZM1663.42 800.423V964H1629.71L1563.99 854.349V964H1530.28V800.423H1563.99L1629.82 910.186V800.423H1663.42ZM1827.11 878.391V886.143C1827.11 898.577 1825.42 909.736 1822.05 919.623C1818.68 929.509 1813.92 937.935 1807.78 944.901C1801.64 951.792 1794.3 957.072 1785.76 960.742C1777.3 964.412 1767.9 966.247 1757.56 966.247C1747.3 966.247 1737.9 964.412 1729.36 960.742C1720.9 957.072 1713.56 951.792 1707.34 944.901C1701.13 937.935 1696.3 929.509 1692.85 919.623C1689.48 909.736 1687.79 898.577 1687.79 886.143V878.391C1687.79 865.883 1689.48 854.724 1692.85 844.912C1696.22 835.025 1700.98 826.599 1707.12 819.634C1713.34 812.668 1720.68 807.351 1729.14 803.681C1737.68 800.011 1747.08 798.176 1757.34 798.176C1767.67 798.176 1777.07 800.011 1785.54 803.681C1794.08 807.351 1801.42 812.668 1807.56 819.634C1813.77 826.599 1818.57 835.025 1821.94 844.912C1825.38 854.724 1827.11 865.883 1827.11 878.391ZM1793.06 886.143V878.167C1793.06 869.479 1792.28 861.839 1790.7 855.248C1789.13 848.657 1786.81 843.114 1783.74 838.621C1780.67 834.127 1776.92 830.756 1772.5 828.509C1768.09 826.187 1763.03 825.027 1757.34 825.027C1751.65 825.027 1746.59 826.187 1742.17 828.509C1737.83 830.756 1734.12 834.127 1731.05 838.621C1728.05 843.114 1725.77 848.657 1724.2 855.248C1722.62 861.839 1721.84 869.479 1721.84 878.167V886.143C1721.84 894.757 1722.62 902.396 1724.2 909.062C1725.77 915.653 1728.09 921.233 1731.16 925.802C1734.23 930.296 1737.98 933.704 1742.4 936.026C1746.81 938.347 1751.87 939.508 1757.56 939.508C1763.25 939.508 1768.31 938.347 1772.73 936.026C1777.15 933.704 1780.86 930.296 1783.85 925.802C1786.85 921.233 1789.13 915.653 1790.7 909.062C1792.28 902.396 1793.06 894.757 1793.06 886.143Z" fill="white"/>
</g>
<rect x="2" y="2" width="2584" height="1745" rx="62" stroke="url(#paint7_linear_438_533)" stroke-width="4"/>
<defs>
<filter id="filter0_f_438_533" x="-2539.04" y="-2401.02" width="5927.03" height="5407.69" filterUnits="userSpaceOnUse" color-interpolation-filters="sRGB">
<feFlood flood-opacity="0" result="BackgroundImageFix"/>
<feBlend mode="normal" in="SourceGraphic" in2="BackgroundImageFix" result="shape"/>
<feGaussianBlur stdDeviation="236.563" result="effect1_foregroundBlur_438_533"/>
</filter>
<linearGradient id="paint0_linear_438_533" x1="193.655" y1="-1846.87" x2="193.655" y2="5258.78" gradientUnits="userSpaceOnUse">
<stop stop-color="#00653C"/>
<stop offset="0.115462" stop-color="#007143"/>
<stop offset="0.200109" stop-color="#007948"/>
<stop offset="0.288114" stop-color="#01CA78"/>
<stop offset="0.310051"/>
<stop offset="0.326263"/>
<stop offset="0.355232" stop-color="#01CA78"/>
<stop offset="0.367166" stop-color="#00824D"/>
<stop offset="0.387225"/>
<stop offset="0.4171"/>
<stop offset="0.770898"/>
</linearGradient>
<linearGradient id="paint1_linear_438_533" x1="1030.05" y1="-1859.43" x2="1030.05" y2="5246.22" gradientUnits="userSpaceOnUse">
<stop offset="0.198108"/>
<stop offset="0.332558"/>
<stop offset="0.472481"/>
<stop offset="0.823689"/>
</linearGradient>
<linearGradient id="paint2_linear_438_533" x1="620.73" y1="-1863.62" x2="620.73" y2="5242.03" gradientUnits="userSpaceOnUse">
<stop stop-color="#00CB79"/>
<stop offset="0.248948" stop-color="#00CB79"/>
<stop offset="0.290627" stop-color="#01CA78"/>
<stop offset="0.306139" stop-color="#0B0B0B"/>
<stop offset="0.332558"/>
<stop offset="0.458731"/>
<stop offset="0.771957"/>
</linearGradient>
<linearGradient id="paint3_linear_438_533" x1="1466.5" y1="-1817.56" x2="1466.5" y2="5288.09" gradientUnits="userSpaceOnUse">
<stop offset="0.298748"/>
<stop offset="0.844263"/>
</linearGradient>
<linearGradient id="paint4_linear_438_533" x1="-4404.18" y1="678.807" x2="2701.47" y2="678.807" gradientUnits="userSpaceOnUse">
<stop offset="0.0157654"/>
<stop offset="0.228246"/>
<stop offset="0.257576" stop-color="#0B0B0B"/>
<stop offset="0.289886" stop-color="#0B0B0B"/>
<stop offset="0.318175" stop-color="#0B0B0B"/>
<stop offset="0.335987" stop-color="#0B0B0B"/>
<stop offset="0.373953" stop-color="#00CB79"/>
<stop offset="0.41285" stop-color="#00CB79"/>
<stop offset="0.427426" stop-color="#0B0B0B"/>
<stop offset="0.452156" stop-color="#0B0B0B"/>
<stop offset="0.471971" stop-color="#00CB79"/>
<stop offset="0.487003" stop-color="#0B0B0B"/>
<stop offset="0.51548" stop-color="#0B0B0B"/>
<stop offset="0.530362" stop-color="#00CB79"/>
<stop offset="0.544707"/>
<stop offset="0.57206"/>
<stop offset="0.588753" stop-color="#01CA78"/>
<stop offset="0.605783"/>
<stop offset="0.632387"/>
<stop offset="0.647144" stop-color="#00CB79"/>
<stop offset="0.664544" stop-color="#00653C"/>
<stop offset="0.68518"/>
<stop offset="0.70899"/>
<stop offset="0.943915"/>
</linearGradient>
<linearGradient id="paint5_linear_438_533" x1="-4404.18" y1="201.078" x2="2701.47" y2="201.078" gradientUnits="userSpaceOnUse">
<stop offset="0.00880216"/>
<stop offset="0.241046"/>
<stop offset="0.270322" stop-color="#00CB79"/>
<stop offset="0.304433" stop-color="#00CB79"/>
<stop offset="0.330737" stop-color="#0B0B0B"/>
<stop offset="0.353393" stop-color="#00CB79"/>
<stop offset="0.374041" stop-color="#0B0B0B"/>
<stop offset="0.395951" stop-color="#0B0B0B"/>
<stop offset="0.41285" stop-color="#00CB79"/>
<stop offset="0.427426" stop-color="#0B0B0B"/>
<stop offset="0.452156" stop-color="#0B0B0B"/>
<stop offset="0.471971" stop-color="#00CB79"/>
<stop offset="0.487003" stop-color="#0B0B0B"/>
<stop offset="0.51548" stop-color="#0B0B0B"/>
<stop offset="0.530362" stop-color="#00CB79"/>
<stop offset="0.544707"/>
<stop offset="0.566143"/>
<stop offset="0.588753" stop-color="#01CA78"/>
<stop offset="0.614614"/>
<stop offset="0.632387"/>
<stop offset="0.647144" stop-color="#01CA78"/>
<stop offset="0.664583"/>
<stop offset="0.676135"/>
<stop offset="0.707653" stop-color="#01CA78"/>
<stop offset="0.720616"/>
<stop offset="0.744745"/>
<stop offset="0.975004"/>
</linearGradient>
<radialGradient id="paint6_radial_438_533" cx="0" cy="0" r="1" gradientUnits="userSpaceOnUse" gradientTransform="translate(-553.875 -347.672) rotate(-123.382) scale(2245 2985.13)">
<stop stop-color="#00653C"/>
<stop offset="1" stop-opacity="0"/>
</radialGradient>
<linearGradient id="paint7_linear_438_533" x1="157.112" y1="107.416" x2="1670.98" y2="2389.27" gradientUnits="userSpaceOnUse">
<stop stop-color="#01CA78"/>
<stop offset="0.0882943" stop-color="#019458" stop-opacity="0.735"/>
<stop offset="0.208483" stop-opacity="0"/>
<stop offset="0.818888" stop-color="#001C11" stop-opacity="0"/>
<stop offset="1" stop-color="#494949"/>
</linearGradient>
<clipPath id="clip0_438_533">
<rect width="2588" height="1749" rx="64" fill="white"/>
</clipPath>
<clipPath id="clip1_438_533">
<rect width="8484.16" height="2196" fill="white" transform="translate(-3557 -212)"/>
</clipPath>
</defs>
</svg>
