<svg width="2588" height="1749" viewBox="0 0 2588 1749" fill="none" xmlns="http://www.w3.org/2000/svg">
<g clip-path="url(#clip0_438_494)">
<rect width="2588" height="1749" rx="64" fill="black"/>
<g clip-path="url(#clip1_438_494)">
<path d="M193.155 -1846.87V5258.78" stroke="url(#paint0_linear_438_494)" stroke-width="3.43335"/>
<path d="M1029.55 -1859.43V5246.22" stroke="url(#paint1_linear_438_494)" stroke-width="3.43335"/>
<path d="M620.23 -1863.62V5242.03" stroke="url(#paint2_linear_438_494)" stroke-width="3.43335"/>
<path d="M1466 -1817.56V5288.09" stroke="url(#paint3_linear_438_494)" stroke-width="3.43335"/>
<path d="M-4404.18 678.307H2701.47" stroke="url(#paint4_linear_438_494)" stroke-width="3.43335"/>
<path d="M-4404.18 200.578H2701.47" stroke="url(#paint5_linear_438_494)" stroke-width="3.43335"/>
<g filter="url(#filter0_f_438_494)">
<path d="M-1806.45 1772.85C-2417.03 846.229 -1913.18 -563.098 -681.069 -1374.97C551.04 -2186.85 2044.83 -2093.83 2655.41 -1167.21C3265.99 -240.586 2762.14 1168.74 1530.03 1980.62C297.919 2792.49 -1195.87 2699.47 -1806.45 1772.85Z" fill="url(#paint6_radial_438_494)"/>
</g>
</g>
<path fill-rule="evenodd" clip-rule="evenodd" d="M1570.94 772.738C1570.94 914.495 1464.36 1031.36 1326.97 1047.58L1461.87 741.596L1367.55 769.462L1355.19 836.619L1298.99 1000.49L1296.52 1007.58L1295.73 1000.49L1277.96 839.583L1277.6 795.968L1221.84 811.783L1226.83 861.179L1178.24 1000.49L1175.54 1008.49L1174.61 1000.49L1159.02 867.3V829.857L1103.18 845.973L1123.39 990.539C1058.86 939.87 1017.41 861.145 1017.41 772.738C1017.41 619.885 1141.32 495.973 1294.17 495.973C1447.03 495.973 1570.94 619.885 1570.94 772.738ZM1240.25 950.103L1253.77 1046.58C1237.79 1044.24 1222.26 1040.54 1207.28 1035.59L1236.98 950.103L1239.25 943.422L1240.25 950.103ZM1413.55 617.878L1388.72 578.945L1372.92 622.336L1328.22 633.92L1364.61 662.354L1361.81 708.447L1400.1 682.629L1443.07 699.532L1430.35 655.142L1459.7 619.495L1413.55 617.878Z" fill="white"/>
<path d="M1005.28 1192.09H981.881L970.796 1154.05H969.428L958.48 1192.09H934.942L911.814 1103.83H933.437L934.805 1115.87L947.532 1169.51H948.9L961.901 1124.9L956.427 1103.83H978.87L980.786 1118.06L994.06 1169.51H995.429L1010.35 1117.1L1012.67 1103.83H1033.2L1005.28 1192.09ZM1075.88 1102.46C1088.47 1102.46 1098.18 1106.24 1105.03 1113.82C1111.87 1121.3 1115.29 1131.97 1115.29 1145.84C1115.29 1160.98 1111.55 1172.75 1104.07 1181.15C1096.59 1189.45 1086.05 1193.6 1072.46 1193.6C1059.96 1193.6 1050.29 1189.77 1043.44 1182.1C1036.6 1174.35 1033.18 1163.4 1033.18 1149.26C1033.18 1134.3 1036.87 1122.76 1044.26 1114.64C1051.75 1106.52 1062.28 1102.46 1075.88 1102.46ZM1073.96 1120.25C1069.67 1120.25 1066.25 1121.11 1063.7 1122.85C1061.14 1124.49 1059.27 1127.23 1058.09 1131.06C1056.9 1134.8 1056.31 1139.91 1056.31 1146.39C1056.31 1154.14 1056.9 1160.25 1058.09 1164.72C1059.27 1169.1 1061.14 1172.25 1063.7 1174.17C1066.34 1176.08 1069.9 1177.04 1074.37 1177.04C1078.75 1177.04 1082.22 1176.22 1084.77 1174.58C1087.33 1172.84 1089.15 1170.06 1090.25 1166.23C1091.43 1162.4 1092.02 1157.15 1092.02 1150.49C1092.02 1142.83 1091.43 1136.81 1090.25 1132.43C1089.06 1128.05 1087.19 1124.95 1084.63 1123.12C1082.08 1121.21 1078.52 1120.25 1073.96 1120.25ZM1178.46 1157.2C1186.03 1168.97 1192.88 1178.87 1198.99 1186.89L1198.72 1189.36C1191.78 1191.64 1184.44 1193.05 1176.68 1193.6L1174.49 1191.82C1169.02 1181.6 1164.27 1172.25 1160.26 1163.77H1148.63L1149.45 1192.09H1127.14L1128.38 1165.96L1127.14 1103.83L1164.37 1103.69C1173.95 1103.69 1181.29 1106.02 1186.4 1110.67C1191.6 1115.23 1194.2 1121.8 1194.2 1130.38C1194.2 1135.76 1192.83 1140.78 1190.09 1145.43C1187.36 1150.08 1183.48 1154 1178.46 1157.2ZM1149.04 1147.07L1160.94 1147.62C1164.32 1146.34 1166.78 1144.47 1168.33 1142.01C1169.98 1139.54 1170.8 1136.35 1170.8 1132.43C1170.8 1128.14 1169.66 1124.99 1167.38 1122.99C1165.19 1120.89 1161.72 1119.75 1156.98 1119.56L1149.59 1119.97L1149.04 1147.07ZM1260.9 1175.54L1259.4 1192.09H1209.72L1210.95 1165.96L1209.72 1103.83H1232.3L1231.07 1163.77L1231.48 1173.89H1259.53L1260.9 1175.54ZM1308.03 1103.28C1320.99 1103.28 1330.89 1106.84 1337.73 1113.95C1344.57 1120.98 1347.99 1131.15 1347.99 1144.47C1347.99 1160.16 1344.07 1172.21 1336.22 1180.6C1328.38 1188.99 1317.16 1193.19 1302.56 1193.19C1294.17 1193.19 1283.58 1192.82 1270.81 1192.09H1270.67L1271.91 1165.96L1270.67 1103.83H1270.81L1308.03 1103.28ZM1306.67 1176.36C1318.8 1176.36 1324.87 1167.51 1324.87 1149.81C1324.87 1139.41 1323.41 1131.97 1320.49 1127.5C1317.57 1123.03 1312.82 1120.8 1306.25 1120.8C1301.42 1120.8 1296.99 1120.98 1292.98 1121.34L1292.16 1163.77L1292.43 1175.26C1297.82 1175.99 1302.56 1176.36 1306.67 1176.36ZM1467.01 1192.09H1443.61L1432.53 1154.05H1431.16L1420.21 1192.09H1396.67L1373.54 1103.83H1395.17L1396.53 1115.87L1409.26 1169.51H1410.63L1423.63 1124.9L1418.16 1103.83H1440.6L1442.52 1118.06L1455.79 1169.51H1457.16L1472.08 1117.1L1474.4 1103.83H1494.93L1467.01 1192.09ZM1525.5 1163.77L1526.32 1192.09H1504.01L1505.24 1165.96L1504.01 1103.83H1526.73L1525.5 1163.77ZM1576.63 1102.46C1584.47 1102.46 1592.41 1104.01 1600.44 1107.11L1596.88 1125.72L1593.59 1126.95C1590.13 1124.67 1586.66 1122.89 1583.19 1121.62C1579.73 1120.34 1576.72 1119.7 1574.16 1119.7C1571.15 1119.7 1568.73 1120.48 1566.91 1122.03C1565.18 1123.49 1564.31 1125.22 1564.31 1127.23C1564.31 1129.51 1565.4 1131.47 1567.59 1133.11C1569.87 1134.66 1573.43 1136.53 1578.27 1138.72C1583.38 1141.09 1587.48 1143.28 1590.58 1145.29C1593.78 1147.21 1596.51 1149.81 1598.79 1153.09C1601.17 1156.38 1602.35 1160.39 1602.35 1165.13C1602.35 1170.43 1600.89 1175.22 1597.97 1179.5C1595.15 1183.79 1591.09 1187.21 1585.79 1189.77C1580.5 1192.23 1574.39 1193.46 1567.46 1193.46C1558.24 1193.46 1549.12 1191.64 1540.09 1187.99L1543.23 1168.15L1545.56 1166.78C1549.39 1169.97 1553.54 1172.48 1558.01 1174.3C1562.58 1176.04 1566.5 1176.9 1569.78 1176.9C1573.25 1176.9 1575.85 1176.13 1577.58 1174.58C1579.41 1173.03 1580.32 1171.2 1580.32 1169.1C1580.32 1166.64 1579.18 1164.59 1576.9 1162.95C1574.62 1161.3 1571.06 1159.39 1566.23 1157.2C1561.3 1154.92 1557.24 1152.82 1554.05 1150.9C1550.94 1148.9 1548.25 1146.25 1545.97 1142.97C1543.69 1139.68 1542.55 1135.67 1542.55 1130.92C1542.55 1125.54 1543.96 1120.7 1546.79 1116.42C1549.71 1112.04 1553.73 1108.62 1558.84 1106.15C1564.04 1103.69 1569.97 1102.46 1576.63 1102.46ZM1674.3 1174.03L1675.53 1175.67L1674.17 1192.09H1615.87L1617.1 1165.96L1615.87 1103.83H1674.99L1676.22 1105.47L1674.71 1121.89L1653.23 1121.07L1638.18 1121.21L1637.9 1138.86H1652.27L1666.64 1138.45L1667.87 1140.09L1666.5 1156.51L1650.77 1156.1H1637.49L1637.35 1163.77L1637.63 1174.71L1652.13 1174.85L1674.3 1174.03Z" fill="white"/>
<path d="M1135.63 1284.75H1122.09L1120.69 1277.11L1119.95 1274.08L1110.43 1273.91L1102.22 1274.16L1101.56 1276.29L1100.08 1284.75H1087.03L1104.1 1231.79H1120.12L1135.63 1284.75ZM1117.41 1264.06L1112.23 1243.94H1111.41L1105.25 1264.06L1111.33 1264.22L1117.41 1264.06ZM1164.89 1231.46C1172.66 1231.46 1178.6 1233.6 1182.71 1237.87C1186.81 1242.08 1188.87 1248.18 1188.87 1256.18C1188.87 1265.59 1186.51 1272.82 1181.81 1277.85C1177.1 1282.89 1170.37 1285.41 1161.61 1285.41C1156.57 1285.41 1150.22 1285.19 1142.56 1284.75H1142.48L1143.21 1269.07L1142.48 1231.79H1142.56L1164.89 1231.46ZM1164.07 1275.31C1171.35 1275.31 1174.99 1270 1174.99 1259.38C1174.99 1253.14 1174.12 1248.68 1172.36 1245.99C1170.61 1243.31 1167.77 1241.97 1163.82 1241.97C1160.92 1241.97 1158.27 1242.08 1155.86 1242.3L1155.37 1267.75L1155.53 1274.65C1158.76 1275.09 1161.61 1275.31 1164.07 1275.31ZM1253.17 1284.75H1241.43L1240.78 1268.66L1239.3 1251.25H1238.48L1227.97 1279.41H1217.78L1208.59 1251.25H1207.69L1206.04 1267.42L1204.98 1284.75H1193.89L1199.15 1231.79H1214.5L1216.39 1239.51L1223.2 1262.17H1224.02L1231.41 1239.75L1233.55 1231.79H1248.66L1253.17 1284.75ZM1275.24 1267.75L1275.74 1284.75H1262.35L1263.09 1269.07L1262.35 1231.79H1275.98L1275.24 1267.75ZM1305.92 1230.97C1310.63 1230.97 1315.39 1231.9 1320.21 1233.76L1318.07 1244.93L1316.1 1245.67C1314.02 1244.3 1311.94 1243.23 1309.86 1242.46C1307.78 1241.7 1305.98 1241.31 1304.44 1241.31C1302.64 1241.31 1301.19 1241.78 1300.09 1242.71C1299.05 1243.59 1298.53 1244.63 1298.53 1245.83C1298.53 1247.2 1299.19 1248.38 1300.5 1249.36C1301.87 1250.29 1304 1251.41 1306.91 1252.73C1309.97 1254.15 1312.43 1255.46 1314.3 1256.67C1316.21 1257.82 1317.85 1259.38 1319.22 1261.35C1320.65 1263.32 1321.36 1265.73 1321.36 1268.57C1321.36 1271.75 1320.48 1274.62 1318.73 1277.2C1317.03 1279.77 1314.6 1281.82 1311.42 1283.35C1308.25 1284.83 1304.58 1285.57 1300.42 1285.57C1294.89 1285.57 1289.42 1284.48 1284 1282.29L1285.89 1270.38L1287.28 1269.56C1289.58 1271.48 1292.07 1272.98 1294.75 1274.08C1297.49 1275.12 1299.84 1275.64 1301.81 1275.64C1303.9 1275.64 1305.46 1275.17 1306.5 1274.24C1307.59 1273.31 1308.14 1272.21 1308.14 1270.96C1308.14 1269.48 1307.45 1268.25 1306.08 1267.26C1304.72 1266.28 1302.58 1265.13 1299.68 1263.81C1296.72 1262.44 1294.29 1261.18 1292.37 1260.04C1290.51 1258.83 1288.9 1257.24 1287.53 1255.27C1286.16 1253.3 1285.48 1250.89 1285.48 1248.05C1285.48 1244.82 1286.32 1241.92 1288.02 1239.34C1289.77 1236.72 1292.18 1234.66 1295.25 1233.19C1298.37 1231.71 1301.92 1230.97 1305.92 1230.97ZM1347.78 1230.97C1352.48 1230.97 1357.25 1231.9 1362.06 1233.76L1359.93 1244.93L1357.96 1245.67C1355.88 1244.3 1353.8 1243.23 1351.72 1242.46C1349.64 1241.7 1347.83 1241.31 1346.3 1241.31C1344.49 1241.31 1343.04 1241.78 1341.95 1242.71C1340.91 1243.59 1340.39 1244.63 1340.39 1245.83C1340.39 1247.2 1341.04 1248.38 1342.36 1249.36C1343.73 1250.29 1345.86 1251.41 1348.76 1252.73C1351.83 1254.15 1354.29 1255.46 1356.15 1256.67C1358.07 1257.82 1359.71 1259.38 1361.08 1261.35C1362.5 1263.32 1363.21 1265.73 1363.21 1268.57C1363.21 1271.75 1362.34 1274.62 1360.59 1277.2C1358.89 1279.77 1356.45 1281.82 1353.28 1283.35C1350.1 1284.83 1346.44 1285.57 1342.28 1285.57C1336.75 1285.57 1331.27 1284.48 1325.85 1282.29L1327.74 1270.38L1329.14 1269.56C1331.44 1271.48 1333.93 1272.98 1336.61 1274.08C1339.35 1275.12 1341.7 1275.64 1343.67 1275.64C1345.75 1275.64 1347.31 1275.17 1348.35 1274.24C1349.45 1273.31 1349.99 1272.21 1349.99 1270.96C1349.99 1269.48 1349.31 1268.25 1347.94 1267.26C1346.57 1266.28 1344.44 1265.13 1341.54 1263.81C1338.58 1262.44 1336.14 1261.18 1334.23 1260.04C1332.37 1258.83 1330.75 1257.24 1329.38 1255.27C1328.02 1253.3 1327.33 1250.89 1327.33 1248.05C1327.33 1244.82 1328.18 1241.92 1329.88 1239.34C1331.63 1236.72 1334.04 1234.66 1337.1 1233.19C1340.22 1231.71 1343.78 1230.97 1347.78 1230.97ZM1384.21 1267.75L1384.71 1284.75H1371.32L1372.06 1269.07L1371.32 1231.79H1384.95L1384.21 1267.75ZM1418.02 1230.97C1425.58 1230.97 1431.4 1233.24 1435.51 1237.78C1439.62 1242.27 1441.67 1248.68 1441.67 1257C1441.67 1266.08 1439.42 1273.15 1434.94 1278.18C1430.45 1283.16 1424.12 1285.65 1415.97 1285.65C1408.47 1285.65 1402.67 1283.35 1398.56 1278.76C1394.46 1274.1 1392.4 1267.53 1392.4 1259.05C1392.4 1250.07 1394.62 1243.15 1399.05 1238.28C1403.54 1233.4 1409.86 1230.97 1418.02 1230.97ZM1416.87 1241.64C1414.3 1241.64 1412.25 1242.16 1410.71 1243.2C1409.18 1244.19 1408.06 1245.83 1407.35 1248.13C1406.64 1250.37 1406.28 1253.44 1406.28 1257.33C1406.28 1261.98 1406.64 1265.65 1407.35 1268.33C1408.06 1270.96 1409.18 1272.84 1410.71 1273.99C1412.3 1275.14 1414.44 1275.72 1417.12 1275.72C1419.75 1275.72 1421.83 1275.23 1423.36 1274.24C1424.89 1273.2 1425.99 1271.53 1426.64 1269.23C1427.35 1266.93 1427.71 1263.78 1427.71 1259.79C1427.71 1255.19 1427.35 1251.58 1426.64 1248.95C1425.93 1246.32 1424.81 1244.46 1423.28 1243.37C1421.74 1242.22 1419.61 1241.64 1416.87 1241.64ZM1494.11 1268L1494.6 1284.75H1480.15L1461.34 1251.99H1460.52L1460.44 1266.11L1460.93 1284.75H1448.86L1449.52 1269.15L1448.86 1231.79H1463.23L1482.12 1264.55H1482.94L1482.61 1232.28L1494.84 1231.54L1494.11 1268Z" fill="white"/>
</g>
<rect x="2" y="2" width="2584" height="1745" rx="62" stroke="url(#paint7_linear_438_494)" stroke-width="4"/>
<defs>
<filter id="filter0_f_438_494" x="-2539.04" y="-2401.02" width="5927.03" height="5407.69" filterUnits="userSpaceOnUse" color-interpolation-filters="sRGB">
<feFlood flood-opacity="0" result="BackgroundImageFix"/>
<feBlend mode="normal" in="SourceGraphic" in2="BackgroundImageFix" result="shape"/>
<feGaussianBlur stdDeviation="236.563" result="effect1_foregroundBlur_438_494"/>
</filter>
<linearGradient id="paint0_linear_438_494" x1="193.655" y1="-1846.87" x2="193.655" y2="5258.78" gradientUnits="userSpaceOnUse">
<stop stop-color="#00653C"/>
<stop offset="0.115462" stop-color="#007143"/>
<stop offset="0.200109" stop-color="#007948"/>
<stop offset="0.288114" stop-color="#01CA78"/>
<stop offset="0.310051"/>
<stop offset="0.326263"/>
<stop offset="0.355232" stop-color="#01CA78"/>
<stop offset="0.367166" stop-color="#00824D"/>
<stop offset="0.387225"/>
<stop offset="0.4171"/>
<stop offset="0.770898"/>
</linearGradient>
<linearGradient id="paint1_linear_438_494" x1="1030.05" y1="-1859.43" x2="1030.05" y2="5246.22" gradientUnits="userSpaceOnUse">
<stop offset="0.198108"/>
<stop offset="0.332558"/>
<stop offset="0.472481"/>
<stop offset="0.823689"/>
</linearGradient>
<linearGradient id="paint2_linear_438_494" x1="620.73" y1="-1863.62" x2="620.73" y2="5242.03" gradientUnits="userSpaceOnUse">
<stop stop-color="#00CB79"/>
<stop offset="0.248948" stop-color="#00CB79"/>
<stop offset="0.290627" stop-color="#01CA78"/>
<stop offset="0.306139" stop-color="#0B0B0B"/>
<stop offset="0.332558"/>
<stop offset="0.458731"/>
<stop offset="0.771957"/>
</linearGradient>
<linearGradient id="paint3_linear_438_494" x1="1466.5" y1="-1817.56" x2="1466.5" y2="5288.09" gradientUnits="userSpaceOnUse">
<stop offset="0.298748"/>
<stop offset="0.844263"/>
</linearGradient>
<linearGradient id="paint4_linear_438_494" x1="-4404.18" y1="678.807" x2="2701.47" y2="678.807" gradientUnits="userSpaceOnUse">
<stop offset="0.0157654"/>
<stop offset="0.228246"/>
<stop offset="0.257576" stop-color="#0B0B0B"/>
<stop offset="0.289886" stop-color="#0B0B0B"/>
<stop offset="0.318175" stop-color="#0B0B0B"/>
<stop offset="0.335987" stop-color="#0B0B0B"/>
<stop offset="0.373953" stop-color="#00CB79"/>
<stop offset="0.41285" stop-color="#00CB79"/>
<stop offset="0.427426" stop-color="#0B0B0B"/>
<stop offset="0.452156" stop-color="#0B0B0B"/>
<stop offset="0.471971" stop-color="#00CB79"/>
<stop offset="0.487003" stop-color="#0B0B0B"/>
<stop offset="0.51548" stop-color="#0B0B0B"/>
<stop offset="0.530362" stop-color="#00CB79"/>
<stop offset="0.544707"/>
<stop offset="0.57206"/>
<stop offset="0.588753" stop-color="#01CA78"/>
<stop offset="0.605783"/>
<stop offset="0.632387"/>
<stop offset="0.647144" stop-color="#00CB79"/>
<stop offset="0.664544" stop-color="#00653C"/>
<stop offset="0.68518"/>
<stop offset="0.70899"/>
<stop offset="0.943915"/>
</linearGradient>
<linearGradient id="paint5_linear_438_494" x1="-4404.18" y1="201.078" x2="2701.47" y2="201.078" gradientUnits="userSpaceOnUse">
<stop offset="0.00880216"/>
<stop offset="0.241046"/>
<stop offset="0.270322" stop-color="#00CB79"/>
<stop offset="0.304433" stop-color="#00CB79"/>
<stop offset="0.330737" stop-color="#0B0B0B"/>
<stop offset="0.353393" stop-color="#00CB79"/>
<stop offset="0.374041" stop-color="#0B0B0B"/>
<stop offset="0.395951" stop-color="#0B0B0B"/>
<stop offset="0.41285" stop-color="#00CB79"/>
<stop offset="0.427426" stop-color="#0B0B0B"/>
<stop offset="0.452156" stop-color="#0B0B0B"/>
<stop offset="0.471971" stop-color="#00CB79"/>
<stop offset="0.487003" stop-color="#0B0B0B"/>
<stop offset="0.51548" stop-color="#0B0B0B"/>
<stop offset="0.530362" stop-color="#00CB79"/>
<stop offset="0.544707"/>
<stop offset="0.566143"/>
<stop offset="0.588753" stop-color="#01CA78"/>
<stop offset="0.614614"/>
<stop offset="0.632387"/>
<stop offset="0.647144" stop-color="#01CA78"/>
<stop offset="0.664583"/>
<stop offset="0.676135"/>
<stop offset="0.707653" stop-color="#01CA78"/>
<stop offset="0.720616"/>
<stop offset="0.744745"/>
<stop offset="0.975004"/>
</linearGradient>
<radialGradient id="paint6_radial_438_494" cx="0" cy="0" r="1" gradientUnits="userSpaceOnUse" gradientTransform="translate(-553.875 -347.672) rotate(-123.382) scale(2245 2985.13)">
<stop stop-color="#00653C"/>
<stop offset="1" stop-opacity="0"/>
</radialGradient>
<linearGradient id="paint7_linear_438_494" x1="157.112" y1="107.416" x2="1670.98" y2="2389.27" gradientUnits="userSpaceOnUse">
<stop stop-color="#01CA78"/>
<stop offset="0.0882943" stop-color="#019458" stop-opacity="0.735"/>
<stop offset="0.208483" stop-opacity="0"/>
<stop offset="0.818888" stop-color="#001C11" stop-opacity="0"/>
<stop offset="1" stop-color="#494949"/>
</linearGradient>
<clipPath id="clip0_438_494">
<rect width="2588" height="1749" rx="64" fill="white"/>
</clipPath>
<clipPath id="clip1_438_494">
<rect width="8484.16" height="2196" fill="white" transform="translate(-3557 -212)"/>
</clipPath>
</defs>
</svg>
