<svg width="403" height="107" viewBox="0 0 403 107" fill="none" xmlns="http://www.w3.org/2000/svg">
<path d="M274.41 25.4144V32.3705L274.675 32.2071L276.304 34.8459L274.429 36.0037L274.415 35.9811V44.7987L274.858 44.9507L274.415 46.2411V49.3378L274.41 49.3565L274.415 93.4887H257.775V25.4144H274.41Z" fill="white"/>
<path fill-rule="evenodd" clip-rule="evenodd" d="M39.999 93.3921C31.885 93.3921 25.2185 92.5563 19.9995 90.8845C14.7805 89.2128 10.7235 86.9091 7.82855 83.9734C4.93362 81.0377 2.89493 77.6127 1.71249 73.6984C0.570832 69.7842 0 65.6049 0 61.1605V32.9044C0 28.3377 0.570832 24.0769 1.71249 20.1218C2.85416 16.126 4.87246 12.6195 7.76739 9.6022C10.6623 6.58495 14.7193 4.24046 19.9383 2.56874C25.1574 0.856247 31.8442 0 39.999 0C47.7868 0 54.1882 0.897021 59.2034 2.69106C64.2593 4.48511 68.194 6.95191 71.0074 10.0915C73.8615 13.1903 75.8391 16.7784 76.9399 20.8557C78.0816 24.9331 78.6524 29.2551 78.6524 33.8218V60.182C78.6524 64.6263 78.0816 68.8464 76.9399 72.8422C75.7983 76.7972 73.8004 80.3242 70.9462 83.423C68.3566 86.2753 64.8341 88.575 60.379 90.3218L72.5777 106.93H53.5641L44.7075 93.2769C43.1987 93.3537 41.6292 93.3921 39.999 93.3921ZM39.999 79.1417C46.849 79.1417 51.9661 78.0204 55.3503 75.7779C58.7345 73.5353 60.4266 69.3356 60.4266 63.1788V30.4579C60.4266 24.3827 58.7141 20.1626 55.2891 17.7977C51.9049 15.4328 46.8082 14.2504 39.999 14.2504C33.2713 14.2504 27.9504 15.4125 24.0361 17.7366C20.1626 20.0199 18.2258 24.2603 18.2258 30.4579V63.1788C18.2258 69.3764 20.1626 73.5965 24.0361 75.8391C27.9096 78.0408 33.2306 79.1417 39.999 79.1417Z" fill="white"/>
<path fill-rule="evenodd" clip-rule="evenodd" d="M102.23 93.4604C96.6029 93.4604 92.0159 91.8294 88.4686 88.5675C84.962 85.3056 83.2087 80.9632 83.2087 75.5403C83.2087 72.4415 83.8407 69.6893 85.1047 67.2837C86.3687 64.878 88.6724 62.6559 92.0159 60.6172C95.3593 58.5377 100.15 56.5194 106.389 54.5623C111.485 52.9313 115.236 51.4227 117.642 50.0364C120.089 48.6501 121.312 46.8153 121.312 44.532C121.312 41.8817 120.517 39.9041 118.926 38.5994C117.377 37.2539 114.727 36.5811 110.976 36.5811C106.817 36.5811 103.987 36.9522 101.355 39.9369C99.6952 41.8198 98.8719 43.3381 98.6321 45.8367C98.5576 46.6134 98.4809 47.8346 98.4809 47.8346H83.2087V45.5034C83.2087 39.1427 87.2861 34.4405 91.5266 30.6485C95.767 26.8566 102.372 24.9606 111.343 24.9606C117.907 24.9606 123.106 25.878 126.939 27.7128C130.771 29.5476 133.523 32.1368 135.195 35.4802C136.867 38.7829 137.703 42.6971 137.703 47.223V73.2162C137.703 76.1927 138.804 79.0877 138.804 79.0877C138.804 79.0877 140.161 82.2943 142.2 82.2943V93.4887H138.418C133.851 93.4887 130.751 91.911 128.223 90.647C125.695 89.383 123.84 87.4259 122.657 84.7756C120.904 87.0997 118.254 89.1384 114.706 90.8916C111.2 92.6041 107.041 93.4604 102.23 93.4604ZM107.86 82.2943C109.899 82.2943 112.219 81.8195 114.951 80.6778C117.683 79.5362 119.803 77.7829 121.312 75.418V58.7824C120.211 59.6794 118.458 60.6783 116.052 61.7792C113.646 62.8393 111.057 63.8791 108.285 64.8984C104.656 66.2439 102.27 67.7322 101.129 69.3631C99.9871 70.9941 99.4163 72.7473 99.4163 74.6229C99.4163 77.2732 100.191 79.2304 101.74 80.4943C103.29 81.7583 105.373 82.2943 107.86 82.2943Z" fill="white"/>
<path d="M155.512 36.6089V71.4024C155.512 77.0292 156.34 81.4862 158.175 84.7073C160.01 87.8877 162.946 90.1302 166.982 91.435C171.019 92.7397 176.288 93.4887 182.893 93.4887H187.583V82.2943H183.801C178.786 82.2943 176.482 80.263 174.688 78.7136C172.935 77.1234 172.058 74.2897 172.058 70.2123V36.6089H187.583V25.4144H165.496L172.152 16.7917V5.7485H157.327L155.966 25.4144H146.738V36.6089H155.512Z" fill="white"/>
<path fill-rule="evenodd" clip-rule="evenodd" d="M220.41 93.4887C210.053 93.4887 202.775 91.4758 198.453 87.643C194.131 83.8103 191.97 78.632 191.97 72.1083V46.2374C191.97 39.5505 194.457 34.3314 199.431 30.5803C204.446 26.7883 211.399 25.4144 220.41 25.4144C229.38 25.4144 236.433 26.7883 241.448 30.5803C246.464 34.3314 249.001 39.6037 249.001 46.2905V72.0075C249.001 76.3295 248.074 80.2018 246.28 83.423C244.486 86.6033 241.51 89.0701 237.351 90.8234C233.233 92.5359 227.545 93.4887 220.41 93.4887ZM220.41 82.2943C223.957 82.2943 226.872 81.1804 229.033 79.8756C231.235 78.5301 232.336 76.1856 232.336 72.8422V45.5034C232.336 42.16 231.296 39.8359 229.216 38.5311C227.137 37.1856 224.161 36.6089 220.41 36.6089C216.821 36.6089 214.008 37.1856 211.847 38.5311C209.686 39.8359 208.605 42.16 208.605 45.5034V72.8422C208.605 76.1856 209.625 78.5301 211.663 79.8756C213.702 81.1804 216.577 82.2943 220.41 82.2943Z" fill="white"/>
<path d="M299.224 82.2943L325.547 36.6089H299.224V25.4144H342.792V37.9703L316.773 82.2943H342.792V93.4887H299.224V82.2943Z" fill="white"/>
<path fill-rule="evenodd" clip-rule="evenodd" d="M347.038 46.3313V71.9576C347.038 77.5843 348.261 81.9879 350.708 85.1682C353.195 88.3486 356.579 90.6115 360.86 91.9571C365.142 93.2618 369.914 93.4887 375.255 93.4887C384.552 93.4887 391.522 92.3444 396.089 89.2048C400.656 86.0653 403 80.4713 403 72.3573H387.57C387.57 76.3939 386.711 79.0522 385.08 80.3977C383.49 81.7025 380.439 82.2943 375.709 82.2943C371.754 82.2943 368.669 81.8656 366.671 80.887C364.673 79.8677 363.674 77.4212 363.674 73.5477L363.668 62.9782H403V46.9429C403 40.3376 400.859 35.0982 396.578 31.2247C392.338 27.3512 385.162 25.4144 375.05 25.4144C366.528 25.4144 359.719 27.2288 354.622 30.8577C349.566 34.4866 347.038 39.6444 347.038 46.3313ZM387.267 44.8251L387.273 52.692H363.674V45.2916C363.674 41.785 364.995 39.1002 367.238 38.1216C369.521 37.1023 372.063 36.6089 375.407 36.6089C377.649 36.6089 379.704 36.8878 381.458 37.214C383.252 37.4994 384.672 38.5232 385.692 39.6648C386.752 40.7657 387.267 42.3786 387.267 44.8251Z" fill="white"/>
<path d="M201.803 16.7917L214.546 0H226.656L239.399 16.7917H228.451L220.601 11.0701L212.75 16.7917H201.803Z" fill="white"/>
<path d="M292.871 25.5339C291.232 25.6508 289.533 25.8792 287.576 26.3221C284.406 27.0399 283.016 27.4633 280.315 28.7425C278.08 29.8007 276.267 31.0716 274.814 32.0908C274.678 32.1861 274.545 32.2793 274.415 32.3698V46.334C279.301 41.439 285.71 38.0647 292.871 36.9825V25.5339Z" fill="white"/>
</svg>
