<svg width="1138" height="936" viewBox="0 0 1138 936" fill="none" xmlns="http://www.w3.org/2000/svg">
<path fill-rule="evenodd" clip-rule="evenodd" d="M845.938 354.738C845.938 496.495 739.363 613.36 601.967 629.58L736.866 323.596L642.547 351.462L630.194 418.619L573.99 582.493L571.517 589.585L570.726 582.493L552.958 421.583L552.596 377.968L496.839 393.783L501.83 443.179L453.24 582.493L450.536 590.489L449.614 582.493L434.022 449.3V411.857L378.18 427.973L398.385 572.539C333.858 521.87 292.407 443.145 292.407 354.738C292.407 201.885 416.319 77.9727 569.172 77.9727C722.026 77.9727 845.938 201.885 845.938 354.738ZM515.247 532.103L528.77 628.575C512.791 626.238 497.255 622.535 482.285 617.59L511.983 532.103L514.251 525.422L515.247 532.103ZM688.551 199.878L663.72 160.945L647.922 204.336L603.221 215.92L639.606 244.354L636.81 290.447L675.096 264.629L718.069 281.532L705.346 237.142L734.7 201.495L688.551 199.878Z" fill="white"/>
<path d="M280.282 774.094H256.881L245.796 736.05H244.428L233.48 774.094H209.942L186.814 685.826H208.437L209.805 697.869L222.532 751.514H223.9L236.901 706.901L231.427 685.826H253.87L255.786 700.059L269.06 751.514H270.429L285.345 699.101L287.672 685.826H308.199L280.282 774.094ZM350.877 684.458C363.467 684.458 373.183 688.244 380.025 695.816C386.868 703.297 390.289 713.972 390.289 727.839C390.289 742.984 386.548 754.752 379.067 763.146C371.586 771.448 361.049 775.599 347.455 775.599C334.957 775.599 325.286 771.767 318.443 764.104C311.601 756.349 308.18 745.401 308.18 731.26C308.18 716.298 311.875 704.757 319.265 696.637C326.746 688.518 337.283 684.458 350.877 684.458ZM348.961 702.248C344.673 702.248 341.252 703.115 338.697 704.848C336.143 706.491 334.272 709.228 333.086 713.059C331.9 716.8 331.307 721.909 331.307 728.386C331.307 736.141 331.9 742.254 333.086 746.724C334.272 751.103 336.143 754.251 338.697 756.167C341.343 758.082 344.901 759.04 349.371 759.04C353.75 759.04 357.217 758.219 359.772 756.577C362.326 754.844 364.151 752.061 365.246 748.229C366.432 744.398 367.025 739.152 367.025 732.492C367.025 724.828 366.432 718.807 365.246 714.428C364.06 710.049 362.189 706.947 359.635 705.122C357.08 703.206 353.522 702.248 348.961 702.248ZM453.462 739.197C461.034 750.966 467.876 760.865 473.989 768.894L473.715 771.357C466.782 773.638 459.437 775.052 451.683 775.599L449.493 773.82C444.019 763.602 439.275 754.251 435.261 745.766H423.629L424.45 774.094H402.143L403.375 747.956L402.143 685.826L439.366 685.69C448.946 685.69 456.29 688.016 461.399 692.669C466.599 697.231 469.199 703.799 469.199 712.375C469.199 717.758 467.831 722.776 465.094 727.428C462.357 732.081 458.479 736.004 453.462 739.197ZM424.039 729.071L435.945 729.618C439.321 728.341 441.784 726.47 443.335 724.007C444.977 721.544 445.798 718.351 445.798 714.428C445.798 710.14 444.658 706.992 442.377 704.985C440.187 702.887 436.72 701.747 431.976 701.564L424.587 701.975L424.039 729.071ZM535.902 757.535L534.397 774.094H484.721L485.952 747.956L484.721 685.826H507.301L506.069 745.766L506.48 755.893H534.534L535.902 757.535ZM583.034 685.279C595.989 685.279 605.887 688.837 612.73 695.953C619.572 702.978 622.993 713.151 622.993 726.47C622.993 742.162 619.07 754.205 611.224 762.598C603.378 770.992 592.157 775.189 577.56 775.189C569.166 775.189 558.583 774.824 545.811 774.094H545.674L546.906 747.956L545.674 685.826H545.811L583.034 685.279ZM581.665 758.356C593.799 758.356 599.866 749.507 599.866 731.808C599.866 721.407 598.406 713.972 595.487 709.501C592.567 705.031 587.823 702.796 581.255 702.796C576.419 702.796 571.994 702.978 567.98 703.343L567.159 745.766L567.433 757.261C572.816 757.991 577.56 758.356 581.665 758.356ZM742.012 774.094H718.611L707.526 736.05H706.158L695.21 774.094H671.672L648.544 685.826H670.167L671.535 697.869L684.262 751.514H685.63L698.631 706.901L693.157 685.826H715.6L717.516 700.059L730.79 751.514H732.159L747.075 699.101L749.402 685.826H769.929L742.012 774.094ZM800.496 745.766L801.318 774.094H779.011L780.243 747.956L779.011 685.826H801.728L800.496 745.766ZM851.626 684.458C859.472 684.458 867.409 686.009 875.437 689.111L871.879 707.722L868.595 708.954C865.128 706.673 861.661 704.894 858.194 703.617C854.727 702.34 851.717 701.701 849.162 701.701C846.152 701.701 843.734 702.476 841.909 704.027C840.176 705.487 839.309 707.22 839.309 709.228C839.309 711.508 840.404 713.47 842.594 715.112C844.874 716.663 848.432 718.533 853.268 720.723C858.377 723.095 862.482 725.284 865.584 727.292C868.777 729.207 871.514 731.808 873.795 735.092C876.167 738.376 877.353 742.391 877.353 747.135C877.353 752.426 875.893 757.216 872.974 761.504C870.146 765.792 866.086 769.213 860.794 771.767C855.503 774.231 849.39 775.462 842.457 775.462C833.242 775.462 824.119 773.638 815.087 769.988L818.235 750.145L820.561 748.777C824.393 751.97 828.544 754.479 833.014 756.303C837.576 758.037 841.499 758.904 844.783 758.904C848.25 758.904 850.85 758.128 852.583 756.577C854.408 755.026 855.32 753.202 855.32 751.103C855.32 748.64 854.18 746.587 851.899 744.945C849.618 743.303 846.06 741.387 841.225 739.197C836.299 736.917 832.239 734.818 829.046 732.902C825.944 730.895 823.252 728.25 820.971 724.965C818.691 721.681 817.55 717.667 817.55 712.922C817.55 707.54 818.964 702.704 821.793 698.417C824.712 694.037 828.726 690.616 833.835 688.153C839.035 685.69 844.966 684.458 851.626 684.458ZM949.303 756.03L950.535 757.672L949.166 774.094H890.869L892.101 747.956L890.869 685.826H949.988L951.219 687.469L949.714 703.89L928.229 703.069L913.175 703.206L912.902 720.86H927.271L941.64 720.449L942.871 722.091L941.503 738.513L925.765 738.103H912.491L912.354 745.766L912.628 756.714L927.134 756.851L949.303 756.03Z" fill="white"/>
<path d="M410.634 866.75H397.086L395.69 859.114L394.951 856.076L385.426 855.912L377.215 856.158L376.559 858.293L375.081 866.75H362.025L379.104 813.79H395.115L410.634 866.75ZM392.406 846.059L387.233 825.942H386.412L380.253 846.059L386.33 846.223L392.406 846.059ZM439.892 813.461C447.665 813.461 453.604 815.596 457.709 819.866C461.815 824.081 463.867 830.184 463.867 838.176C463.867 847.591 461.514 854.817 456.806 859.853C452.098 864.889 445.366 867.407 436.607 867.407C431.571 867.407 425.221 867.188 417.558 866.75H417.476L418.215 851.067L417.476 813.79H417.558L439.892 813.461ZM439.071 857.307C446.351 857.307 449.991 851.998 449.991 841.378C449.991 835.138 449.115 830.677 447.364 827.995C445.612 825.312 442.765 823.971 438.824 823.971C435.923 823.971 433.268 824.081 430.86 824.3L430.367 849.753L430.531 856.651C433.761 857.088 436.607 857.307 439.071 857.307ZM528.174 866.75H516.432L515.775 850.657L514.297 833.249H513.476L502.966 861.413H492.785L483.588 833.249H482.685L481.043 849.425L479.976 866.75H468.891L474.146 813.79H489.5L491.389 821.508L498.204 844.17H499.025L506.415 821.754L508.55 813.79H523.658L528.174 866.75ZM550.243 849.753L550.736 866.75H537.352L538.091 851.067L537.352 813.79H550.982L550.243 849.753ZM580.92 812.969C585.628 812.969 590.39 813.899 595.207 815.76L593.073 826.927L591.102 827.666C589.022 826.298 586.942 825.23 584.862 824.464C582.782 823.697 580.975 823.314 579.442 823.314C577.636 823.314 576.185 823.78 575.091 824.71C574.051 825.586 573.531 826.626 573.531 827.83C573.531 829.199 574.187 830.376 575.501 831.361C576.87 832.292 579.005 833.414 581.906 834.727C584.971 836.151 587.434 837.464 589.296 838.669C591.211 839.818 592.854 841.378 594.222 843.349C595.645 845.32 596.357 847.728 596.357 850.575C596.357 853.749 595.481 856.623 593.729 859.196C592.032 861.769 589.597 863.821 586.422 865.354C583.247 866.832 579.579 867.571 575.419 867.571C569.89 867.571 564.416 866.476 558.997 864.287L560.886 852.381L562.282 851.56C564.581 853.476 567.071 854.981 569.754 856.076C572.491 857.116 574.844 857.636 576.815 857.636C578.895 857.636 580.455 857.171 581.495 856.24C582.59 855.309 583.137 854.215 583.137 852.956C583.137 851.478 582.453 850.246 581.085 849.261C579.716 848.275 577.581 847.126 574.68 845.812C571.724 844.444 569.288 843.185 567.372 842.035C565.511 840.831 563.896 839.243 562.528 837.273C561.159 835.302 560.475 832.894 560.475 830.047C560.475 826.818 561.324 823.916 563.021 821.344C564.772 818.716 567.181 816.663 570.246 815.185C573.366 813.708 576.924 812.969 580.92 812.969ZM622.777 812.969C627.484 812.969 632.247 813.899 637.064 815.76L634.929 826.927L632.958 827.666C630.878 826.298 628.798 825.23 626.718 824.464C624.638 823.697 622.832 823.314 621.299 823.314C619.492 823.314 618.042 823.78 616.947 824.71C615.907 825.586 615.387 826.626 615.387 827.83C615.387 829.199 616.044 830.376 617.358 831.361C618.726 832.292 620.861 833.414 623.762 834.727C626.827 836.151 629.291 837.464 631.152 838.669C633.068 839.818 634.71 841.378 636.078 843.349C637.502 845.32 638.213 847.728 638.213 850.575C638.213 853.749 637.337 856.623 635.586 859.196C633.889 861.769 631.453 863.821 628.278 865.354C625.103 866.832 621.436 867.571 617.275 867.571C611.747 867.571 606.273 866.476 600.854 864.287L602.742 852.381L604.138 851.56C606.437 853.476 608.928 854.981 611.61 856.076C614.347 857.116 616.701 857.636 618.671 857.636C620.751 857.636 622.311 857.171 623.352 856.24C624.446 855.309 624.994 854.215 624.994 852.956C624.994 851.478 624.309 850.246 622.941 849.261C621.573 848.275 619.438 847.126 616.536 845.812C613.581 844.444 611.145 843.185 609.229 842.035C607.368 840.831 605.753 839.243 604.384 837.273C603.016 835.302 602.332 832.894 602.332 830.047C602.332 826.818 603.18 823.916 604.877 821.344C606.629 818.716 609.037 816.663 612.103 815.185C615.223 813.708 618.781 812.969 622.777 812.969ZM659.214 849.753L659.707 866.75H646.323L647.062 851.067L646.323 813.79H659.953L659.214 849.753ZM693.021 812.969C700.575 812.969 706.405 815.24 710.51 819.784C714.616 824.272 716.669 830.677 716.669 838.997C716.669 848.084 714.424 855.145 709.936 860.181C705.447 865.163 699.125 867.653 690.968 867.653C683.469 867.653 677.667 865.354 673.561 860.756C669.456 856.103 667.403 849.534 667.403 841.05C667.403 832.073 669.62 825.148 674.054 820.276C678.543 815.404 684.865 812.969 693.021 812.969ZM691.872 823.643C689.299 823.643 687.246 824.163 685.713 825.203C684.181 826.188 683.059 827.83 682.347 830.129C681.635 832.374 681.28 835.439 681.28 839.326C681.28 843.978 681.635 847.646 682.347 850.328C683.059 852.956 684.181 854.844 685.713 855.994C687.301 857.143 689.436 857.718 692.118 857.718C694.745 857.718 696.826 857.225 698.358 856.24C699.891 855.2 700.986 853.53 701.643 851.231C702.354 848.932 702.71 845.785 702.71 841.789C702.71 837.191 702.354 833.578 701.643 830.95C700.931 828.323 699.809 826.462 698.276 825.367C696.743 824.217 694.609 823.643 691.872 823.643ZM769.105 850L769.598 866.75H755.147L736.344 833.988H735.523L735.441 848.111L735.933 866.75H723.863L724.52 851.149L723.863 813.79H738.232L757.117 846.551H757.939L757.61 814.282L769.844 813.543L769.105 850Z" fill="white"/>
</svg>
