<svg width="2588" height="1749" viewBox="0 0 2588 1749" fill="none" xmlns="http://www.w3.org/2000/svg">
<g clip-path="url(#clip0_437_368)">
<rect width="2588" height="1749" rx="64" fill="black"/>
<g clip-path="url(#clip1_437_368)">
<path d="M193.155 -1846.87V5258.78" stroke="url(#paint0_linear_437_368)" stroke-width="3.43335"/>
<path d="M1029.55 -1859.43V5246.22" stroke="url(#paint1_linear_437_368)" stroke-width="3.43335"/>
<path d="M620.23 -1863.62V5242.03" stroke="url(#paint2_linear_437_368)" stroke-width="3.43335"/>
<path d="M1466 -1817.56V5288.09" stroke="url(#paint3_linear_437_368)" stroke-width="3.43335"/>
<path d="M-4404.18 678.307H2701.47" stroke="url(#paint4_linear_437_368)" stroke-width="3.43335"/>
<path d="M-4404.18 200.578H2701.47" stroke="url(#paint5_linear_437_368)" stroke-width="3.43335"/>
<g filter="url(#filter0_f_437_368)">
<path d="M-1806.45 1772.85C-2417.03 846.229 -1913.18 -563.098 -681.069 -1374.97C551.04 -2186.85 2044.83 -2093.83 2655.41 -1167.21C3265.99 -240.586 2762.14 1168.74 1530.03 1980.62C297.919 2792.49 -1195.87 2699.47 -1806.45 1772.85Z" fill="url(#paint6_radial_437_368)"/>
</g>
</g>
<rect x="896.198" y="832.824" width="349.144" height="68.3747" transform="rotate(-41.3957 896.198 832.824)" fill="white"/>
<rect x="977.767" y="783.57" width="122.861" height="64.1013" transform="rotate(-90 977.767 783.57)" fill="white"/>
<rect x="1120.93" y="830.578" width="34.1873" height="34.1873" transform="rotate(-90 1120.93 830.578)" fill="white"/>
<rect x="1164.73" y="830.578" width="34.1873" height="34.1873" transform="rotate(-90 1164.73 830.578)" fill="white"/>
<rect x="1164.73" y="874.383" width="34.1873" height="34.1873" transform="rotate(-90 1164.73 874.383)" fill="white"/>
<rect x="1120.93" y="874.383" width="34.1873" height="34.1873" transform="rotate(-90 1120.93 874.383)" fill="white"/>
<rect x="1158.22" y="601.951" width="349.149" height="68.3747" transform="rotate(40.9057 1158.22 601.951)" fill="white"/>
<rect x="1267.86" y="588" width="369.27" height="61.0134" transform="rotate(40.9057 1267.86 588)" fill="white"/>
<rect x="1406.6" y="588.062" width="369.27" height="61.0134" transform="rotate(40.9057 1406.6 588.062)" fill="white"/>
<path d="M1027.26 977.926C1027.26 986.601 1024.27 993.83 1018.29 999.614C1012.41 1005.3 1003.38 1008.14 991.216 1008.14H971.174V1051.66H957.563V947.414H991.216C1002.98 947.414 1011.91 950.256 1017.99 955.94C1024.17 961.623 1027.26 968.952 1027.26 977.926ZM991.216 996.922C998.794 996.922 1004.38 995.276 1007.97 991.986C1011.56 988.695 1013.35 984.009 1013.35 977.926C1013.35 965.063 1005.97 958.632 991.216 958.632H971.174V996.922H991.216ZM1055.25 1040.75C1067.91 1030.57 1077.83 1022.25 1085.01 1015.77C1092.19 1009.19 1098.22 1002.36 1103.11 995.276C1108.1 988.097 1110.59 981.067 1110.59 974.187C1110.59 967.706 1108.99 962.62 1105.8 958.931C1102.71 955.142 1097.68 953.247 1090.7 953.247C1083.91 953.247 1078.63 955.391 1074.84 959.679C1071.15 963.867 1069.16 969.5 1068.86 976.58H1055.7C1056.09 965.412 1059.48 956.787 1065.87 950.705C1072.25 944.622 1080.47 941.581 1090.55 941.581C1100.82 941.581 1108.94 944.423 1114.93 950.106C1121.01 955.79 1124.05 963.617 1124.05 973.589C1124.05 981.865 1121.56 989.942 1116.57 997.819C1111.68 1005.6 1106.1 1012.48 1099.82 1018.46C1093.54 1024.34 1085.51 1031.22 1075.74 1039.1H1127.19V1050.47H1055.25V1040.75ZM1193.18 1052.71C1186.3 1052.71 1180.12 1051.51 1174.63 1049.12C1169.25 1046.63 1165.01 1043.24 1161.92 1038.95C1158.83 1034.56 1157.23 1029.53 1157.13 1023.84H1171.64C1172.14 1028.73 1174.13 1032.87 1177.62 1036.26C1181.21 1039.55 1186.4 1041.19 1193.18 1041.19C1199.66 1041.19 1204.75 1039.6 1208.44 1036.41C1212.22 1033.12 1214.12 1028.93 1214.12 1023.84C1214.12 1019.86 1213.02 1016.61 1210.83 1014.12C1208.64 1011.63 1205.89 1009.73 1202.6 1008.44C1199.31 1007.14 1194.87 1005.75 1189.29 1004.25C1182.41 1002.46 1176.88 1000.66 1172.69 998.866C1168.6 997.071 1165.06 994.279 1162.07 990.49C1159.18 986.601 1157.73 981.416 1157.73 974.935C1157.73 969.251 1159.18 964.216 1162.07 959.828C1164.96 955.441 1169 952.051 1174.18 949.658C1179.47 947.264 1185.5 946.068 1192.28 946.068C1202.05 946.068 1210.03 948.511 1216.21 953.397C1222.5 958.283 1226.04 964.764 1226.83 972.841H1211.88C1211.38 968.852 1209.28 965.362 1205.59 962.371C1201.9 959.28 1197.02 957.734 1190.94 957.734C1185.25 957.734 1180.62 959.23 1177.03 962.221C1173.44 965.113 1171.64 969.201 1171.64 974.486C1171.64 978.275 1172.69 981.366 1174.78 983.759C1176.98 986.153 1179.62 987.997 1182.71 989.294C1185.9 990.49 1190.34 991.886 1196.02 993.481C1202.9 995.376 1208.44 997.271 1212.62 999.165C1216.81 1000.96 1220.4 1003.8 1223.39 1007.69C1226.38 1011.48 1227.88 1016.66 1227.88 1023.25C1227.88 1028.33 1226.53 1033.12 1223.84 1037.6C1221.15 1042.09 1217.16 1045.73 1211.88 1048.52C1206.59 1051.32 1200.36 1052.71 1193.18 1052.71ZM1319.7 991.088V1002.61H1260.02V991.088H1319.7ZM1424.37 947.414V958.482H1395.95V1051.66H1382.34V958.482H1353.77V947.414H1424.37ZM1488.54 947.414C1499.9 947.414 1509.73 949.558 1518 953.846C1526.38 958.033 1532.76 964.066 1537.15 971.943C1541.63 979.821 1543.88 989.094 1543.88 999.763C1543.88 1010.43 1541.63 1019.71 1537.15 1027.58C1532.76 1035.36 1526.38 1041.34 1518 1045.53C1509.73 1049.62 1499.9 1051.66 1488.54 1051.66H1456.08V947.414H1488.54ZM1488.54 1040.45C1502 1040.45 1512.27 1036.91 1519.35 1029.83C1526.43 1022.65 1529.97 1012.63 1529.97 999.763C1529.97 986.801 1526.38 976.68 1519.2 969.401C1512.12 962.122 1501.9 958.482 1488.54 958.482H1469.69V1040.45H1488.54ZM1590.4 958.482V993.332H1628.39V1004.55H1590.4V1040.45H1632.88V1051.66H1576.79V947.264H1632.88V958.482H1590.4Z" fill="white"/>
<rect x="920.076" y="1098.73" width="747.848" height="84.4" fill="white"/>
<path d="M1078.58 1125.39C1078.58 1125.68 1078.57 1125.92 1078.54 1126.13C1078.51 1126.34 1078.46 1126.51 1078.38 1126.65C1078.32 1126.77 1078.24 1126.86 1078.14 1126.92C1078.05 1126.98 1077.94 1127.01 1077.82 1127.01H1069.66V1152.17C1069.66 1152.29 1069.63 1152.4 1069.57 1152.49C1069.51 1152.58 1069.4 1152.65 1069.25 1152.71C1069.1 1152.76 1068.9 1152.8 1068.65 1152.83C1068.41 1152.87 1068.1 1152.89 1067.73 1152.89C1067.37 1152.89 1067.06 1152.87 1066.81 1152.83C1066.55 1152.8 1066.35 1152.76 1066.2 1152.71C1066.05 1152.65 1065.95 1152.58 1065.89 1152.49C1065.83 1152.4 1065.8 1152.29 1065.8 1152.17V1127.01H1057.63C1057.51 1127.01 1057.4 1126.98 1057.3 1126.92C1057.21 1126.86 1057.13 1126.77 1057.07 1126.65C1057.01 1126.51 1056.96 1126.34 1056.92 1126.13C1056.89 1125.92 1056.87 1125.68 1056.87 1125.39C1056.87 1125.11 1056.89 1124.86 1056.92 1124.65C1056.96 1124.43 1057.01 1124.25 1057.07 1124.11C1057.13 1123.98 1057.21 1123.88 1057.3 1123.82C1057.4 1123.76 1057.51 1123.73 1057.63 1123.73H1077.82C1077.94 1123.73 1078.05 1123.76 1078.14 1123.82C1078.24 1123.88 1078.32 1123.98 1078.38 1124.11C1078.46 1124.25 1078.51 1124.43 1078.54 1124.65C1078.57 1124.86 1078.58 1125.11 1078.58 1125.39ZM1094.96 1133.33C1094.96 1133.66 1094.95 1133.94 1094.93 1134.16C1094.92 1134.39 1094.89 1134.57 1094.84 1134.7C1094.8 1134.82 1094.74 1134.92 1094.66 1134.99C1094.6 1135.05 1094.51 1135.08 1094.39 1135.08C1094.27 1135.08 1094.13 1135.05 1093.95 1134.99C1093.78 1134.92 1093.59 1134.85 1093.36 1134.79C1093.15 1134.72 1092.91 1134.65 1092.64 1134.59C1092.38 1134.53 1092.08 1134.5 1091.77 1134.5C1091.4 1134.5 1091.03 1134.57 1090.67 1134.72C1090.31 1134.87 1089.93 1135.12 1089.53 1135.46C1089.14 1135.81 1088.73 1136.26 1088.29 1136.83C1087.86 1137.4 1087.38 1138.1 1086.86 1138.92V1152.2C1086.86 1152.32 1086.83 1152.42 1086.77 1152.51C1086.71 1152.59 1086.61 1152.65 1086.48 1152.71C1086.34 1152.77 1086.15 1152.82 1085.92 1152.85C1085.68 1152.88 1085.37 1152.89 1085 1152.89C1084.64 1152.89 1084.34 1152.88 1084.1 1152.85C1083.86 1152.82 1083.66 1152.77 1083.52 1152.71C1083.38 1152.65 1083.28 1152.59 1083.22 1152.51C1083.18 1152.42 1083.16 1152.32 1083.16 1152.2V1132.01C1083.16 1131.89 1083.18 1131.79 1083.22 1131.72C1083.27 1131.63 1083.36 1131.55 1083.49 1131.49C1083.63 1131.42 1083.8 1131.37 1084.01 1131.36C1084.22 1131.33 1084.49 1131.31 1084.84 1131.31C1085.17 1131.31 1085.44 1131.33 1085.65 1131.36C1085.87 1131.37 1086.04 1131.42 1086.16 1131.49C1086.28 1131.55 1086.36 1131.63 1086.41 1131.72C1086.47 1131.79 1086.5 1131.89 1086.5 1132.01V1134.95C1087.05 1134.14 1087.57 1133.48 1088.05 1132.97C1088.54 1132.46 1089 1132.07 1089.44 1131.78C1089.87 1131.49 1090.3 1131.28 1090.72 1131.18C1091.15 1131.06 1091.58 1131 1092.02 1131C1092.21 1131 1092.43 1131.01 1092.67 1131.04C1092.92 1131.06 1093.18 1131.1 1093.45 1131.16C1093.72 1131.22 1093.96 1131.28 1094.17 1131.36C1094.39 1131.43 1094.55 1131.51 1094.64 1131.58C1094.73 1131.66 1094.79 1131.73 1094.82 1131.81C1094.85 1131.87 1094.87 1131.95 1094.89 1132.05C1094.92 1132.16 1094.93 1132.32 1094.93 1132.52C1094.95 1132.72 1094.96 1132.99 1094.96 1133.33ZM1117.11 1152.22C1117.11 1152.4 1117.05 1152.53 1116.93 1152.62C1116.81 1152.71 1116.65 1152.78 1116.44 1152.83C1116.23 1152.87 1115.92 1152.89 1115.52 1152.89C1115.13 1152.89 1114.82 1152.87 1114.58 1152.83C1114.35 1152.78 1114.19 1152.71 1114.09 1152.62C1113.98 1152.53 1113.93 1152.4 1113.93 1152.22V1150.2C1113.05 1151.14 1112.06 1151.88 1110.97 1152.4C1109.89 1152.92 1108.75 1153.18 1107.54 1153.18C1106.47 1153.18 1105.51 1153.04 1104.64 1152.76C1103.79 1152.49 1103.06 1152.09 1102.44 1151.57C1101.85 1151.05 1101.37 1150.4 1101.03 1149.64C1100.7 1148.88 1100.54 1148.01 1100.54 1147.04C1100.54 1145.9 1100.77 1144.91 1101.23 1144.08C1101.7 1143.24 1102.36 1142.54 1103.23 1141.99C1104.1 1141.44 1105.16 1141.03 1106.41 1140.76C1107.67 1140.47 1109.08 1140.33 1110.65 1140.33H1113.43V1138.76C1113.43 1137.98 1113.35 1137.3 1113.19 1136.7C1113.02 1136.1 1112.75 1135.61 1112.38 1135.22C1112.02 1134.81 1111.55 1134.51 1110.97 1134.32C1110.38 1134.11 1109.67 1134.01 1108.81 1134.01C1107.9 1134.01 1107.08 1134.12 1106.35 1134.34C1105.63 1134.55 1104.99 1134.79 1104.44 1135.06C1103.9 1135.31 1103.45 1135.55 1103.07 1135.78C1102.71 1135.99 1102.44 1136.09 1102.26 1136.09C1102.14 1136.09 1102.04 1136.06 1101.95 1136C1101.86 1135.94 1101.78 1135.85 1101.7 1135.73C1101.64 1135.61 1101.6 1135.46 1101.57 1135.28C1101.54 1135.09 1101.52 1134.88 1101.52 1134.66C1101.52 1134.28 1101.55 1133.99 1101.59 1133.78C1101.65 1133.56 1101.78 1133.35 1101.97 1133.15C1102.18 1132.96 1102.53 1132.73 1103.03 1132.48C1103.52 1132.21 1104.09 1131.97 1104.73 1131.76C1105.37 1131.54 1106.08 1131.36 1106.84 1131.22C1107.6 1131.07 1108.37 1131 1109.15 1131C1110.6 1131 1111.83 1131.16 1112.85 1131.49C1113.87 1131.82 1114.69 1132.31 1115.32 1132.95C1115.95 1133.58 1116.4 1134.36 1116.69 1135.31C1116.97 1136.25 1117.11 1137.35 1117.11 1138.6V1152.22ZM1113.43 1143H1110.27C1109.26 1143 1108.37 1143.09 1107.63 1143.27C1106.88 1143.43 1106.26 1143.69 1105.76 1144.03C1105.27 1144.36 1104.9 1144.76 1104.66 1145.24C1104.44 1145.71 1104.33 1146.25 1104.33 1146.86C1104.33 1147.91 1104.66 1148.74 1105.31 1149.37C1105.99 1149.98 1106.92 1150.29 1108.12 1150.29C1109.09 1150.29 1109.99 1150.04 1110.81 1149.55C1111.65 1149.06 1112.52 1148.3 1113.43 1147.28V1143ZM1143.4 1131.96C1143.4 1132.02 1143.39 1132.09 1143.38 1132.17C1143.38 1132.23 1143.37 1132.29 1143.35 1132.37C1143.34 1132.44 1143.32 1132.52 1143.29 1132.61C1143.27 1132.7 1143.25 1132.8 1143.22 1132.91L1136.33 1152.08C1136.27 1152.25 1136.19 1152.38 1136.09 1152.49C1136 1152.59 1135.86 1152.68 1135.66 1152.74C1135.47 1152.8 1135.22 1152.83 1134.92 1152.85C1134.62 1152.88 1134.25 1152.89 1133.8 1152.89C1133.35 1152.89 1132.98 1152.88 1132.68 1152.85C1132.38 1152.82 1132.13 1152.77 1131.94 1152.71C1131.76 1152.65 1131.62 1152.57 1131.51 1152.47C1131.41 1152.36 1131.32 1152.23 1131.26 1152.08L1124.4 1132.91C1124.34 1132.73 1124.29 1132.57 1124.24 1132.44C1124.21 1132.3 1124.19 1132.2 1124.18 1132.14C1124.18 1132.07 1124.18 1132.01 1124.18 1131.96C1124.18 1131.84 1124.21 1131.74 1124.27 1131.65C1124.33 1131.56 1124.42 1131.49 1124.56 1131.45C1124.71 1131.39 1124.89 1131.35 1125.12 1131.34C1125.36 1131.32 1125.65 1131.31 1125.99 1131.31C1126.43 1131.31 1126.77 1131.33 1127.02 1131.36C1127.29 1131.37 1127.5 1131.41 1127.63 1131.47C1127.78 1131.53 1127.88 1131.61 1127.94 1131.69C1128.02 1131.78 1128.09 1131.9 1128.15 1132.03L1133.84 1148.68L1133.93 1148.94L1134 1148.68L1139.63 1132.03C1139.66 1131.9 1139.71 1131.78 1139.79 1131.69C1139.86 1131.61 1139.97 1131.53 1140.1 1131.47C1140.25 1131.41 1140.45 1131.37 1140.69 1131.36C1140.94 1131.33 1141.27 1131.31 1141.67 1131.31C1142.02 1131.31 1142.3 1131.32 1142.52 1131.34C1142.75 1131.35 1142.92 1131.39 1143.04 1131.45C1143.18 1131.51 1143.27 1131.58 1143.31 1131.67C1143.37 1131.75 1143.4 1131.84 1143.4 1131.96ZM1165.83 1152.22C1165.83 1152.4 1165.77 1152.53 1165.65 1152.62C1165.53 1152.71 1165.36 1152.78 1165.15 1152.83C1164.94 1152.87 1164.64 1152.89 1164.23 1152.89C1163.85 1152.89 1163.53 1152.87 1163.29 1152.83C1163.07 1152.78 1162.9 1152.71 1162.8 1152.62C1162.69 1152.53 1162.64 1152.4 1162.64 1152.22V1150.2C1161.76 1151.14 1160.77 1151.88 1159.68 1152.4C1158.6 1152.92 1157.46 1153.18 1156.25 1153.18C1155.19 1153.18 1154.22 1153.04 1153.36 1152.76C1152.5 1152.49 1151.77 1152.09 1151.16 1151.57C1150.56 1151.05 1150.09 1150.4 1149.74 1149.64C1149.42 1148.88 1149.25 1148.01 1149.25 1147.04C1149.25 1145.9 1149.48 1144.91 1149.95 1144.08C1150.41 1143.24 1151.07 1142.54 1151.94 1141.99C1152.81 1141.44 1153.87 1141.03 1155.13 1140.76C1156.38 1140.47 1157.8 1140.33 1159.37 1140.33H1162.15V1138.76C1162.15 1137.98 1162.07 1137.3 1161.9 1136.7C1161.74 1136.1 1161.47 1135.61 1161.09 1135.22C1160.74 1134.81 1160.26 1134.51 1159.68 1134.32C1159.1 1134.11 1158.38 1134.01 1157.53 1134.01C1156.62 1134.01 1155.79 1134.12 1155.06 1134.34C1154.34 1134.55 1153.71 1134.79 1153.15 1135.06C1152.62 1135.31 1152.16 1135.55 1151.79 1135.78C1151.43 1135.99 1151.16 1136.09 1150.98 1136.09C1150.86 1136.09 1150.75 1136.06 1150.66 1136C1150.57 1135.94 1150.49 1135.85 1150.42 1135.73C1150.36 1135.61 1150.31 1135.46 1150.28 1135.28C1150.25 1135.09 1150.24 1134.88 1150.24 1134.66C1150.24 1134.28 1150.26 1133.99 1150.3 1133.78C1150.36 1133.56 1150.49 1133.35 1150.69 1133.15C1150.9 1132.96 1151.25 1132.73 1151.74 1132.48C1152.23 1132.21 1152.8 1131.97 1153.45 1131.76C1154.09 1131.54 1154.79 1131.36 1155.55 1131.22C1156.32 1131.07 1157.09 1131 1157.86 1131C1159.31 1131 1160.55 1131.16 1161.57 1131.49C1162.58 1131.82 1163.4 1132.31 1164.03 1132.95C1164.66 1133.58 1165.12 1134.36 1165.4 1135.31C1165.69 1136.25 1165.83 1137.35 1165.83 1138.6V1152.22ZM1162.15 1143H1158.99C1157.97 1143 1157.09 1143.09 1156.34 1143.27C1155.59 1143.43 1154.97 1143.69 1154.48 1144.03C1153.98 1144.36 1153.62 1144.76 1153.38 1145.24C1153.15 1145.71 1153.04 1146.25 1153.04 1146.86C1153.04 1147.91 1153.37 1148.74 1154.03 1149.37C1154.7 1149.98 1155.64 1150.29 1156.83 1150.29C1157.8 1150.29 1158.7 1150.04 1159.52 1149.55C1160.36 1149.06 1161.24 1148.3 1162.15 1147.28V1143ZM1193.62 1152.2C1193.62 1152.32 1193.59 1152.42 1193.53 1152.51C1193.48 1152.59 1193.39 1152.65 1193.26 1152.71C1193.12 1152.77 1192.94 1152.82 1192.72 1152.85C1192.51 1152.88 1192.25 1152.89 1191.93 1152.89C1191.59 1152.89 1191.31 1152.88 1191.08 1152.85C1190.87 1152.82 1190.7 1152.77 1190.57 1152.71C1190.45 1152.65 1190.36 1152.59 1190.32 1152.51C1190.27 1152.42 1190.25 1152.32 1190.25 1152.2V1149.53C1189.1 1150.8 1187.96 1151.73 1186.84 1152.31C1185.72 1152.89 1184.58 1153.18 1183.43 1153.18C1182.09 1153.18 1180.95 1152.96 1180.02 1152.51C1179.11 1152.06 1178.37 1151.46 1177.8 1150.69C1177.23 1149.92 1176.82 1149.02 1176.57 1148C1176.33 1146.97 1176.21 1145.72 1176.21 1144.26V1132.01C1176.21 1131.89 1176.23 1131.79 1176.28 1131.72C1176.34 1131.63 1176.44 1131.55 1176.59 1131.49C1176.74 1131.42 1176.93 1131.37 1177.17 1131.36C1177.41 1131.33 1177.71 1131.31 1178.07 1131.31C1178.43 1131.31 1178.73 1131.33 1178.97 1131.36C1179.21 1131.37 1179.39 1131.42 1179.53 1131.49C1179.68 1131.55 1179.78 1131.63 1179.84 1131.72C1179.9 1131.79 1179.93 1131.89 1179.93 1132.01V1143.76C1179.93 1144.94 1180.02 1145.89 1180.18 1146.61C1180.36 1147.31 1180.62 1147.92 1180.96 1148.43C1181.32 1148.92 1181.77 1149.31 1182.31 1149.6C1182.85 1149.86 1183.48 1150 1184.19 1150C1185.12 1150 1186.04 1149.67 1186.95 1149.01C1187.88 1148.35 1188.86 1147.39 1189.89 1146.12V1132.01C1189.89 1131.89 1189.91 1131.79 1189.96 1131.72C1190.02 1131.63 1190.12 1131.55 1190.27 1131.49C1190.42 1131.42 1190.61 1131.37 1190.83 1131.36C1191.07 1131.33 1191.38 1131.31 1191.75 1131.31C1192.11 1131.31 1192.41 1131.33 1192.65 1131.36C1192.89 1131.37 1193.08 1131.42 1193.21 1131.49C1193.35 1131.55 1193.44 1131.63 1193.5 1131.72C1193.58 1131.79 1193.62 1131.89 1193.62 1132.01V1152.2ZM1219.43 1151.77C1219.55 1151.98 1219.61 1152.16 1219.61 1152.31C1219.61 1152.44 1219.54 1152.56 1219.39 1152.65C1219.25 1152.74 1219.03 1152.8 1218.74 1152.83C1218.45 1152.87 1218.08 1152.89 1217.61 1152.89C1217.17 1152.89 1216.81 1152.88 1216.54 1152.85C1216.28 1152.83 1216.07 1152.8 1215.91 1152.76C1215.76 1152.7 1215.64 1152.63 1215.55 1152.56C1215.48 1152.47 1215.41 1152.37 1215.35 1152.26L1210.5 1144.26L1205.68 1152.26C1205.62 1152.37 1205.55 1152.47 1205.46 1152.56C1205.38 1152.63 1205.26 1152.7 1205.1 1152.76C1204.95 1152.8 1204.75 1152.83 1204.49 1152.85C1204.24 1152.88 1203.9 1152.89 1203.48 1152.89C1203.05 1152.89 1202.69 1152.87 1202.41 1152.83C1202.14 1152.8 1201.93 1152.74 1201.8 1152.65C1201.68 1152.56 1201.62 1152.44 1201.62 1152.31C1201.64 1152.16 1201.71 1151.98 1201.84 1151.77L1208.13 1141.92L1202.18 1132.44C1202.06 1132.23 1201.99 1132.05 1201.98 1131.92C1201.98 1131.77 1202.05 1131.65 1202.18 1131.56C1202.33 1131.46 1202.55 1131.39 1202.83 1131.36C1203.13 1131.33 1203.52 1131.31 1204 1131.31C1204.43 1131.31 1204.78 1131.33 1205.03 1131.36C1205.3 1131.37 1205.51 1131.4 1205.66 1131.45C1205.81 1131.49 1205.92 1131.55 1205.99 1131.63C1206.07 1131.7 1206.14 1131.79 1206.2 1131.9L1210.79 1139.41L1215.46 1131.9C1215.52 1131.81 1215.59 1131.72 1215.66 1131.65C1215.74 1131.58 1215.83 1131.52 1215.95 1131.47C1216.09 1131.41 1216.27 1131.37 1216.49 1131.36C1216.73 1131.33 1217.05 1131.31 1217.46 1131.31C1217.89 1131.31 1218.24 1131.33 1218.51 1131.36C1218.8 1131.39 1219 1131.45 1219.14 1131.54C1219.27 1131.61 1219.33 1131.72 1219.32 1131.87C1219.3 1132.02 1219.23 1132.21 1219.09 1132.44L1213.19 1141.81L1219.43 1151.77ZM1259.1 1152.2C1259.1 1152.32 1259.07 1152.42 1259.01 1152.51C1258.97 1152.6 1258.88 1152.68 1258.75 1152.74C1258.63 1152.78 1258.46 1152.82 1258.25 1152.85C1258.04 1152.88 1257.79 1152.89 1257.49 1152.89C1257.18 1152.89 1256.91 1152.88 1256.7 1152.85C1256.5 1152.82 1256.32 1152.78 1256.19 1152.74C1256.05 1152.68 1255.96 1152.6 1255.9 1152.51C1255.84 1152.42 1255.81 1152.32 1255.81 1152.2V1149.53C1254.75 1150.68 1253.64 1151.58 1252.49 1152.22C1251.35 1152.86 1250.1 1153.18 1248.74 1153.18C1247.26 1153.18 1246 1152.9 1244.95 1152.33C1243.9 1151.75 1243.05 1150.97 1242.39 1150C1241.75 1149.01 1241.28 1147.86 1240.98 1146.54C1240.68 1145.21 1240.53 1143.82 1240.53 1142.35C1240.53 1140.62 1240.72 1139.05 1241.09 1137.66C1241.47 1136.26 1242.02 1135.06 1242.75 1134.07C1243.48 1133.09 1244.39 1132.33 1245.47 1131.81C1246.56 1131.27 1247.81 1131 1249.23 1131C1250.42 1131 1251.49 1131.26 1252.46 1131.78C1253.45 1132.29 1254.42 1133.05 1255.38 1134.05V1122.32C1255.38 1122.21 1255.4 1122.12 1255.45 1122.03C1255.51 1121.92 1255.61 1121.85 1255.76 1121.8C1255.91 1121.74 1256.1 1121.7 1256.32 1121.67C1256.56 1121.62 1256.86 1121.6 1257.22 1121.6C1257.59 1121.6 1257.9 1121.62 1258.14 1121.67C1258.38 1121.7 1258.57 1121.74 1258.7 1121.8C1258.84 1121.85 1258.93 1121.92 1258.99 1122.03C1259.07 1122.12 1259.1 1122.21 1259.1 1122.32V1152.2ZM1255.38 1138C1254.38 1136.76 1253.41 1135.81 1252.46 1135.17C1251.54 1134.51 1250.57 1134.18 1249.55 1134.18C1248.61 1134.18 1247.81 1134.41 1247.15 1134.86C1246.49 1135.31 1245.95 1135.9 1245.53 1136.63C1245.13 1137.36 1244.83 1138.19 1244.64 1139.12C1244.46 1140.05 1244.37 1140.99 1244.37 1141.95C1244.37 1142.96 1244.44 1143.96 1244.59 1144.93C1244.76 1145.9 1245.03 1146.77 1245.42 1147.53C1245.81 1148.28 1246.33 1148.88 1246.97 1149.35C1247.61 1149.8 1248.42 1150.02 1249.39 1150.02C1249.89 1150.02 1250.36 1149.95 1250.8 1149.82C1251.27 1149.68 1251.74 1149.46 1252.22 1149.15C1252.7 1148.83 1253.2 1148.43 1253.72 1147.94C1254.24 1147.43 1254.8 1146.81 1255.38 1146.07V1138ZM1286.85 1141.23C1286.85 1141.81 1286.7 1142.23 1286.4 1142.48C1286.12 1142.72 1285.79 1142.84 1285.41 1142.84H1272.18C1272.18 1143.96 1272.29 1144.97 1272.51 1145.87C1272.74 1146.77 1273.11 1147.54 1273.64 1148.18C1274.16 1148.82 1274.84 1149.32 1275.68 1149.66C1276.52 1150.01 1277.54 1150.18 1278.75 1150.18C1279.71 1150.18 1280.56 1150.1 1281.31 1149.95C1282.06 1149.79 1282.7 1149.61 1283.24 1149.42C1283.79 1149.22 1284.24 1149.05 1284.58 1148.9C1284.94 1148.74 1285.21 1148.65 1285.39 1148.65C1285.5 1148.65 1285.58 1148.68 1285.66 1148.74C1285.75 1148.79 1285.82 1148.86 1285.86 1148.97C1285.91 1149.07 1285.94 1149.22 1285.95 1149.42C1285.98 1149.6 1286 1149.82 1286 1150.09C1286 1150.28 1285.99 1150.45 1285.97 1150.6C1285.96 1150.74 1285.94 1150.87 1285.91 1150.99C1285.89 1151.09 1285.85 1151.19 1285.79 1151.28C1285.75 1151.37 1285.68 1151.46 1285.59 1151.55C1285.52 1151.62 1285.28 1151.76 1284.87 1151.95C1284.47 1152.13 1283.95 1152.31 1283.3 1152.49C1282.66 1152.67 1281.91 1152.83 1281.06 1152.96C1280.22 1153.11 1279.33 1153.18 1278.37 1153.18C1276.71 1153.18 1275.25 1152.95 1274 1152.49C1272.75 1152.03 1271.71 1151.34 1270.85 1150.42C1270 1149.51 1269.36 1148.37 1268.93 1146.99C1268.49 1145.62 1268.28 1144.02 1268.28 1142.19C1268.28 1140.46 1268.5 1138.9 1268.95 1137.53C1269.4 1136.14 1270.04 1134.96 1270.88 1134.01C1271.73 1133.03 1272.75 1132.29 1273.95 1131.78C1275.15 1131.26 1276.49 1131 1277.97 1131C1279.55 1131 1280.9 1131.25 1282 1131.76C1283.12 1132.27 1284.04 1132.96 1284.76 1133.83C1285.48 1134.68 1286 1135.69 1286.33 1136.85C1286.68 1138.01 1286.85 1139.24 1286.85 1140.56V1141.23ZM1283.12 1140.13C1283.17 1138.18 1282.74 1136.66 1281.82 1135.55C1280.93 1134.45 1279.59 1133.89 1277.81 1133.89C1276.9 1133.89 1276.1 1134.07 1275.41 1134.41C1274.72 1134.75 1274.14 1135.21 1273.68 1135.78C1273.22 1136.35 1272.86 1137.01 1272.6 1137.77C1272.35 1138.52 1272.21 1139.31 1272.18 1140.13H1283.12ZM1313.96 1152.2C1313.96 1152.32 1313.93 1152.42 1313.87 1152.51C1313.81 1152.59 1313.71 1152.65 1313.58 1152.71C1313.44 1152.77 1313.26 1152.82 1313.02 1152.85C1312.78 1152.88 1312.47 1152.89 1312.1 1152.89C1311.74 1152.89 1311.44 1152.88 1311.2 1152.85C1310.96 1152.82 1310.77 1152.77 1310.62 1152.71C1310.48 1152.65 1310.39 1152.59 1310.33 1152.51C1310.28 1152.42 1310.26 1152.32 1310.26 1152.2V1122.23C1310.26 1122.11 1310.28 1122 1310.33 1121.91C1310.39 1121.83 1310.48 1121.75 1310.62 1121.69C1310.77 1121.63 1310.96 1121.59 1311.2 1121.56C1311.44 1121.53 1311.74 1121.51 1312.1 1121.51C1312.47 1121.51 1312.78 1121.53 1313.02 1121.56C1313.26 1121.59 1313.44 1121.63 1313.58 1121.69C1313.71 1121.75 1313.81 1121.83 1313.87 1121.91C1313.93 1122 1313.96 1122.11 1313.96 1122.23V1152.2ZM1329.37 1123.19C1329.37 1123.66 1329.34 1124.08 1329.3 1124.47C1329.26 1124.85 1329.18 1125.21 1329.08 1125.57C1328.97 1125.92 1328.83 1126.26 1328.65 1126.6C1328.49 1126.93 1328.28 1127.28 1328.02 1127.63L1324.95 1132.26C1324.87 1132.36 1324.78 1132.46 1324.68 1132.55C1324.59 1132.64 1324.47 1132.71 1324.32 1132.77C1324.19 1132.82 1324.02 1132.85 1323.83 1132.88C1323.65 1132.9 1323.42 1132.91 1323.13 1132.91C1322.88 1132.91 1322.66 1132.9 1322.48 1132.88C1322.32 1132.85 1322.2 1132.82 1322.12 1132.77C1322.05 1132.71 1322 1132.64 1321.99 1132.55C1321.99 1132.46 1322.02 1132.35 1322.08 1132.21L1325.06 1126.04V1123.19C1325.06 1122.8 1325.1 1122.49 1325.17 1122.25C1325.26 1122.01 1325.4 1121.83 1325.58 1121.69C1325.76 1121.56 1325.98 1121.47 1326.25 1121.42C1326.52 1121.38 1326.85 1121.35 1327.24 1121.35C1327.61 1121.35 1327.93 1121.38 1328.2 1121.42C1328.47 1121.47 1328.69 1121.56 1328.85 1121.69C1329.03 1121.83 1329.16 1122.01 1329.23 1122.25C1329.32 1122.49 1329.37 1122.8 1329.37 1123.19ZM1356.21 1151.17C1356.21 1151.43 1356.2 1151.67 1356.17 1151.88C1356.14 1152.08 1356.09 1152.24 1356.01 1152.38C1355.94 1152.51 1355.85 1152.61 1355.74 1152.67C1355.65 1152.73 1355.55 1152.76 1355.43 1152.76H1341.5C1341.16 1152.76 1340.83 1152.65 1340.51 1152.42C1340.21 1152.18 1340.06 1151.77 1340.06 1151.19V1125.3C1340.06 1124.72 1340.21 1124.31 1340.51 1124.09C1340.83 1123.85 1341.16 1123.73 1341.5 1123.73H1355.27C1355.39 1123.73 1355.5 1123.76 1355.59 1123.82C1355.69 1123.88 1355.77 1123.98 1355.83 1124.11C1355.89 1124.25 1355.94 1124.42 1355.97 1124.63C1356.01 1124.82 1356.03 1125.07 1356.03 1125.37C1356.03 1125.64 1356.01 1125.88 1355.97 1126.09C1355.94 1126.28 1355.89 1126.45 1355.83 1126.58C1355.77 1126.7 1355.69 1126.79 1355.59 1126.85C1355.5 1126.91 1355.39 1126.94 1355.27 1126.94H1343.92V1136.05H1353.66C1353.78 1136.05 1353.88 1136.08 1353.97 1136.16C1354.08 1136.22 1354.16 1136.31 1354.22 1136.43C1354.29 1136.55 1354.34 1136.71 1354.37 1136.92C1354.4 1137.13 1354.42 1137.38 1354.42 1137.66C1354.42 1137.93 1354.4 1138.16 1354.37 1138.36C1354.34 1138.55 1354.29 1138.71 1354.22 1138.83C1354.16 1138.95 1354.08 1139.04 1353.97 1139.1C1353.88 1139.14 1353.78 1139.16 1353.66 1139.16H1343.92V1149.55H1355.43C1355.55 1149.55 1355.65 1149.58 1355.74 1149.64C1355.85 1149.7 1355.94 1149.8 1356.01 1149.93C1356.09 1150.05 1356.14 1150.22 1356.17 1150.42C1356.2 1150.62 1356.21 1150.87 1356.21 1151.17ZM1382.37 1160.2C1382.37 1160.32 1382.33 1160.43 1382.25 1160.52C1382.19 1160.61 1382.1 1160.68 1381.96 1160.74C1381.83 1160.8 1381.64 1160.85 1381.4 1160.88C1381.16 1160.91 1380.86 1160.92 1380.5 1160.92C1380.13 1160.92 1379.82 1160.91 1379.58 1160.88C1379.36 1160.85 1379.17 1160.8 1379.02 1160.74C1378.87 1160.68 1378.77 1160.61 1378.71 1160.52C1378.66 1160.43 1378.64 1160.32 1378.64 1160.2V1149.86C1378.03 1150.48 1377.45 1151 1376.89 1151.43C1376.34 1151.85 1375.79 1152.2 1375.25 1152.47C1374.72 1152.72 1374.17 1152.9 1373.62 1153C1373.08 1153.12 1372.52 1153.18 1371.93 1153.18C1370.47 1153.18 1369.22 1152.9 1368.19 1152.33C1367.16 1151.75 1366.31 1150.97 1365.65 1150C1365.01 1149.01 1364.54 1147.86 1364.24 1146.54C1363.94 1145.21 1363.79 1143.82 1363.79 1142.35C1363.79 1140.62 1363.98 1139.05 1364.35 1137.66C1364.73 1136.26 1365.28 1135.06 1366.01 1134.07C1366.76 1133.09 1367.67 1132.33 1368.75 1131.81C1369.84 1131.27 1371.1 1131 1372.52 1131C1373.12 1131 1373.68 1131.07 1374.2 1131.2C1374.72 1131.32 1375.24 1131.52 1375.75 1131.81C1376.27 1132.08 1376.79 1132.44 1377.32 1132.88C1377.86 1133.32 1378.44 1133.84 1379.07 1134.45V1132.01C1379.07 1131.87 1379.1 1131.77 1379.16 1131.69C1379.22 1131.61 1379.31 1131.53 1379.45 1131.47C1379.58 1131.41 1379.76 1131.37 1379.97 1131.36C1380.17 1131.33 1380.44 1131.31 1380.75 1131.31C1381.05 1131.31 1381.3 1131.33 1381.51 1131.36C1381.72 1131.37 1381.89 1131.41 1382.01 1131.47C1382.14 1131.53 1382.23 1131.61 1382.28 1131.69C1382.34 1131.77 1382.37 1131.87 1382.37 1132.01V1160.2ZM1378.64 1138C1377.64 1136.76 1376.67 1135.81 1375.73 1135.17C1374.8 1134.51 1373.83 1134.18 1372.81 1134.18C1371.87 1134.18 1371.07 1134.41 1370.41 1134.86C1369.75 1135.31 1369.21 1135.9 1368.79 1136.63C1368.39 1137.36 1368.09 1138.19 1367.9 1139.12C1367.72 1140.05 1367.63 1140.99 1367.63 1141.95C1367.63 1142.98 1367.7 1143.98 1367.85 1144.95C1368.02 1145.92 1368.29 1146.78 1368.68 1147.53C1369.07 1148.28 1369.59 1148.88 1370.23 1149.35C1370.87 1149.8 1371.68 1150.02 1372.65 1150.02C1373.15 1150.02 1373.62 1149.95 1374.07 1149.82C1374.53 1149.68 1375 1149.46 1375.48 1149.15C1375.96 1148.83 1376.46 1148.43 1376.98 1147.94C1377.51 1147.43 1378.06 1146.81 1378.64 1146.07V1138ZM1410.18 1152.2C1410.18 1152.32 1410.15 1152.42 1410.09 1152.51C1410.04 1152.59 1409.95 1152.65 1409.82 1152.71C1409.68 1152.77 1409.5 1152.82 1409.28 1152.85C1409.07 1152.88 1408.81 1152.89 1408.49 1152.89C1408.15 1152.89 1407.87 1152.88 1407.64 1152.85C1407.43 1152.82 1407.26 1152.77 1407.13 1152.71C1407.01 1152.65 1406.92 1152.59 1406.88 1152.51C1406.83 1152.42 1406.81 1152.32 1406.81 1152.2V1149.53C1405.66 1150.8 1404.52 1151.73 1403.4 1152.31C1402.28 1152.89 1401.14 1153.18 1399.99 1153.18C1398.65 1153.18 1397.51 1152.96 1396.58 1152.51C1395.67 1152.06 1394.93 1151.46 1394.36 1150.69C1393.79 1149.92 1393.38 1149.02 1393.13 1148C1392.89 1146.97 1392.77 1145.72 1392.77 1144.26V1132.01C1392.77 1131.89 1392.79 1131.79 1392.84 1131.72C1392.9 1131.63 1393 1131.55 1393.15 1131.49C1393.3 1131.42 1393.5 1131.37 1393.73 1131.36C1393.97 1131.33 1394.27 1131.31 1394.63 1131.31C1394.99 1131.31 1395.29 1131.33 1395.53 1131.36C1395.77 1131.37 1395.96 1131.42 1396.09 1131.49C1396.24 1131.55 1396.34 1131.63 1396.4 1131.72C1396.46 1131.79 1396.49 1131.89 1396.49 1132.01V1143.76C1396.49 1144.94 1396.58 1145.89 1396.74 1146.61C1396.92 1147.31 1397.18 1147.92 1397.53 1148.43C1397.88 1148.92 1398.33 1149.31 1398.87 1149.6C1399.41 1149.86 1400.04 1150 1400.76 1150C1401.68 1150 1402.6 1149.67 1403.51 1149.01C1404.44 1148.35 1405.42 1147.39 1406.45 1146.12V1132.01C1406.45 1131.89 1406.48 1131.79 1406.52 1131.72C1406.58 1131.63 1406.68 1131.55 1406.83 1131.49C1406.98 1131.42 1407.17 1131.37 1407.39 1131.36C1407.63 1131.33 1407.94 1131.31 1408.31 1131.31C1408.67 1131.31 1408.97 1131.33 1409.21 1131.36C1409.45 1131.37 1409.64 1131.42 1409.77 1131.49C1409.91 1131.55 1410 1131.63 1410.06 1131.72C1410.14 1131.79 1410.18 1131.89 1410.18 1132.01V1152.2ZM1435.9 1152.22C1435.9 1152.4 1435.84 1152.53 1435.72 1152.62C1435.6 1152.71 1435.44 1152.78 1435.23 1152.83C1435.02 1152.87 1434.71 1152.89 1434.31 1152.89C1433.92 1152.89 1433.61 1152.87 1433.37 1152.83C1433.14 1152.78 1432.98 1152.71 1432.87 1152.62C1432.77 1152.53 1432.72 1152.4 1432.72 1152.22V1150.2C1431.83 1151.14 1430.85 1151.88 1429.76 1152.4C1428.68 1152.92 1427.53 1153.18 1426.32 1153.18C1425.26 1153.18 1424.3 1153.04 1423.43 1152.76C1422.58 1152.49 1421.84 1152.09 1421.23 1151.57C1420.63 1151.05 1420.16 1150.4 1419.82 1149.64C1419.49 1148.88 1419.32 1148.01 1419.32 1147.04C1419.32 1145.9 1419.56 1144.91 1420.02 1144.08C1420.48 1143.24 1421.15 1142.54 1422.02 1141.99C1422.88 1141.44 1423.95 1141.03 1425.2 1140.76C1426.46 1140.47 1427.87 1140.33 1429.44 1140.33H1432.22V1138.76C1432.22 1137.98 1432.14 1137.3 1431.98 1136.7C1431.81 1136.1 1431.54 1135.61 1431.17 1135.22C1430.81 1134.81 1430.34 1134.51 1429.76 1134.32C1429.17 1134.11 1428.45 1134.01 1427.6 1134.01C1426.69 1134.01 1425.87 1134.12 1425.13 1134.34C1424.42 1134.55 1423.78 1134.79 1423.23 1135.06C1422.69 1135.31 1422.23 1135.55 1421.86 1135.78C1421.5 1135.99 1421.23 1136.09 1421.05 1136.09C1420.93 1136.09 1420.83 1136.06 1420.74 1136C1420.65 1135.94 1420.57 1135.85 1420.49 1135.73C1420.43 1135.61 1420.39 1135.46 1420.36 1135.28C1420.33 1135.09 1420.31 1134.88 1420.31 1134.66C1420.31 1134.28 1420.33 1133.99 1420.38 1133.78C1420.44 1133.56 1420.57 1133.35 1420.76 1133.15C1420.97 1132.96 1421.32 1132.73 1421.81 1132.48C1422.31 1132.21 1422.88 1131.97 1423.52 1131.76C1424.16 1131.54 1424.87 1131.36 1425.63 1131.22C1426.39 1131.07 1427.16 1131 1427.94 1131C1429.39 1131 1430.62 1131.16 1431.64 1131.49C1432.66 1131.82 1433.48 1132.31 1434.11 1132.95C1434.74 1133.58 1435.19 1134.36 1435.48 1135.31C1435.76 1136.25 1435.9 1137.35 1435.9 1138.6V1152.22ZM1432.22 1143H1429.06C1428.04 1143 1427.16 1143.09 1426.41 1143.27C1425.67 1143.43 1425.04 1143.69 1424.55 1144.03C1424.06 1144.36 1423.69 1144.76 1423.45 1145.24C1423.23 1145.71 1423.12 1146.25 1423.12 1146.86C1423.12 1147.91 1423.44 1148.74 1424.1 1149.37C1424.78 1149.98 1425.71 1150.29 1426.91 1150.29C1427.88 1150.29 1428.78 1150.04 1429.6 1149.55C1430.44 1149.06 1431.31 1148.3 1432.22 1147.28V1143ZM1456.45 1150.72C1456.45 1151.15 1456.42 1151.49 1456.36 1151.75C1456.3 1152 1456.21 1152.19 1456.09 1152.31C1455.97 1152.43 1455.79 1152.54 1455.55 1152.65C1455.31 1152.75 1455.03 1152.83 1454.72 1152.89C1454.42 1152.97 1454.1 1153.03 1453.75 1153.07C1453.41 1153.12 1453.07 1153.14 1452.72 1153.14C1451.67 1153.14 1450.78 1153 1450.03 1152.74C1449.28 1152.45 1448.67 1152.03 1448.19 1151.48C1447.71 1150.91 1447.36 1150.2 1447.14 1149.35C1446.93 1148.48 1446.82 1147.46 1446.82 1146.3V1134.5H1444C1443.77 1134.5 1443.59 1134.38 1443.46 1134.14C1443.32 1133.9 1443.26 1133.51 1443.26 1132.97C1443.26 1132.69 1443.27 1132.45 1443.3 1132.26C1443.35 1132.06 1443.4 1131.9 1443.46 1131.78C1443.52 1131.65 1443.59 1131.56 1443.68 1131.52C1443.79 1131.46 1443.9 1131.43 1444.02 1131.43H1446.82V1126.63C1446.82 1126.52 1446.84 1126.42 1446.89 1126.33C1446.95 1126.24 1447.05 1126.17 1447.18 1126.11C1447.33 1126.03 1447.52 1125.98 1447.76 1125.95C1448 1125.92 1448.3 1125.91 1448.66 1125.91C1449.04 1125.91 1449.34 1125.92 1449.58 1125.95C1449.82 1125.98 1450.01 1126.03 1450.14 1126.11C1450.28 1126.17 1450.37 1126.24 1450.43 1126.33C1450.49 1126.42 1450.52 1126.52 1450.52 1126.63V1131.43H1455.7C1455.82 1131.43 1455.93 1131.46 1456.02 1131.52C1456.11 1131.56 1456.18 1131.65 1456.24 1131.78C1456.32 1131.9 1456.37 1132.06 1456.4 1132.26C1456.43 1132.45 1456.45 1132.69 1456.45 1132.97C1456.45 1133.51 1456.38 1133.9 1456.24 1134.14C1456.11 1134.38 1455.93 1134.5 1455.7 1134.5H1450.52V1145.76C1450.52 1147.15 1450.73 1148.2 1451.13 1148.92C1451.55 1149.62 1452.29 1149.98 1453.35 1149.98C1453.69 1149.98 1454 1149.95 1454.27 1149.89C1454.54 1149.81 1454.78 1149.74 1454.99 1149.66C1455.2 1149.59 1455.38 1149.52 1455.53 1149.46C1455.67 1149.39 1455.81 1149.35 1455.93 1149.35C1456 1149.35 1456.07 1149.37 1456.13 1149.42C1456.21 1149.45 1456.26 1149.51 1456.29 1149.62C1456.33 1149.72 1456.37 1149.86 1456.4 1150.04C1456.43 1150.22 1456.45 1150.45 1456.45 1150.72ZM1481.74 1141.23C1481.74 1141.81 1481.59 1142.23 1481.3 1142.48C1481.01 1142.72 1480.68 1142.84 1480.31 1142.84H1467.07C1467.07 1143.96 1467.19 1144.97 1467.41 1145.87C1467.63 1146.77 1468.01 1147.54 1468.53 1148.18C1469.06 1148.82 1469.74 1149.32 1470.57 1149.66C1471.41 1150.01 1472.43 1150.18 1473.65 1150.18C1474.6 1150.18 1475.46 1150.1 1476.2 1149.95C1476.95 1149.79 1477.59 1149.61 1478.13 1149.42C1478.69 1149.22 1479.13 1149.05 1479.48 1148.9C1479.84 1148.74 1480.11 1148.65 1480.29 1148.65C1480.39 1148.65 1480.48 1148.68 1480.55 1148.74C1480.64 1148.79 1480.71 1148.86 1480.76 1148.97C1480.8 1149.07 1480.83 1149.22 1480.85 1149.42C1480.88 1149.6 1480.89 1149.82 1480.89 1150.09C1480.89 1150.28 1480.88 1150.45 1480.87 1150.6C1480.85 1150.74 1480.83 1150.87 1480.8 1150.99C1480.79 1151.09 1480.75 1151.19 1480.69 1151.28C1480.64 1151.37 1480.58 1151.46 1480.49 1151.55C1480.41 1151.62 1480.17 1151.76 1479.77 1151.95C1479.37 1152.13 1478.84 1152.31 1478.2 1152.49C1477.56 1152.67 1476.81 1152.83 1475.96 1152.96C1475.12 1153.11 1474.22 1153.18 1473.26 1153.18C1471.6 1153.18 1470.15 1152.95 1468.89 1152.49C1467.65 1152.03 1466.6 1151.34 1465.75 1150.42C1464.9 1149.51 1464.25 1148.37 1463.82 1146.99C1463.39 1145.62 1463.17 1144.02 1463.17 1142.19C1463.17 1140.46 1463.4 1138.9 1463.84 1137.53C1464.29 1136.14 1464.94 1134.96 1465.77 1134.01C1466.63 1133.03 1467.65 1132.29 1468.85 1131.78C1470.04 1131.26 1471.38 1131 1472.86 1131C1474.45 1131 1475.79 1131.25 1476.9 1131.76C1478.02 1132.27 1478.94 1132.96 1479.66 1133.83C1480.38 1134.68 1480.9 1135.69 1481.23 1136.85C1481.57 1138.01 1481.74 1139.24 1481.74 1140.56V1141.23ZM1478.02 1140.13C1478.07 1138.18 1477.63 1136.66 1476.72 1135.55C1475.82 1134.45 1474.48 1133.89 1472.7 1133.89C1471.79 1133.89 1470.99 1134.07 1470.3 1134.41C1469.62 1134.75 1469.04 1135.21 1468.58 1135.78C1468.11 1136.35 1467.75 1137.01 1467.5 1137.77C1467.25 1138.52 1467.1 1139.31 1467.07 1140.13H1478.02ZM1508.37 1152.2C1508.37 1152.32 1508.34 1152.42 1508.28 1152.51C1508.23 1152.59 1508.14 1152.65 1508.01 1152.71C1507.87 1152.77 1507.69 1152.82 1507.47 1152.85C1507.26 1152.88 1507 1152.89 1506.68 1152.89C1506.34 1152.89 1506.06 1152.88 1505.83 1152.85C1505.62 1152.82 1505.45 1152.77 1505.32 1152.71C1505.2 1152.65 1505.11 1152.59 1505.07 1152.51C1505.02 1152.42 1505 1152.32 1505 1152.2V1149.53C1503.85 1150.8 1502.71 1151.73 1501.59 1152.31C1500.47 1152.89 1499.33 1153.18 1498.18 1153.18C1496.84 1153.18 1495.7 1152.96 1494.77 1152.51C1493.86 1152.06 1493.12 1151.46 1492.55 1150.69C1491.98 1149.92 1491.57 1149.02 1491.32 1148C1491.08 1146.97 1490.96 1145.72 1490.96 1144.26V1132.01C1490.96 1131.89 1490.98 1131.79 1491.03 1131.72C1491.09 1131.63 1491.19 1131.55 1491.34 1131.49C1491.49 1131.42 1491.68 1131.37 1491.92 1131.36C1492.16 1131.33 1492.46 1131.31 1492.82 1131.31C1493.18 1131.31 1493.48 1131.33 1493.72 1131.36C1493.96 1131.37 1494.14 1131.42 1494.28 1131.49C1494.43 1131.55 1494.53 1131.63 1494.59 1131.72C1494.65 1131.79 1494.68 1131.89 1494.68 1132.01V1143.76C1494.68 1144.94 1494.77 1145.89 1494.93 1146.61C1495.11 1147.31 1495.37 1147.92 1495.71 1148.43C1496.07 1148.92 1496.52 1149.31 1497.06 1149.6C1497.6 1149.86 1498.23 1150 1498.95 1150C1499.87 1150 1500.79 1149.67 1501.7 1149.01C1502.63 1148.35 1503.61 1147.39 1504.64 1146.12V1132.01C1504.64 1131.89 1504.67 1131.79 1504.71 1131.72C1504.77 1131.63 1504.87 1131.55 1505.02 1131.49C1505.17 1131.42 1505.36 1131.37 1505.58 1131.36C1505.82 1131.33 1506.13 1131.31 1506.5 1131.31C1506.86 1131.31 1507.16 1131.33 1507.4 1131.36C1507.64 1131.37 1507.83 1131.42 1507.96 1131.49C1508.1 1131.55 1508.19 1131.63 1508.25 1131.72C1508.33 1131.79 1508.37 1131.89 1508.37 1132.01V1152.2ZM1530.68 1133.33C1530.68 1133.66 1530.67 1133.94 1530.66 1134.16C1530.64 1134.39 1530.61 1134.57 1530.57 1134.7C1530.52 1134.82 1530.46 1134.92 1530.39 1134.99C1530.33 1135.05 1530.24 1135.08 1530.12 1135.08C1530 1135.08 1529.85 1135.05 1529.67 1134.99C1529.51 1134.92 1529.31 1134.85 1529.09 1134.79C1528.88 1134.72 1528.64 1134.65 1528.37 1134.59C1528.1 1134.53 1527.81 1134.5 1527.5 1134.5C1527.12 1134.5 1526.76 1134.57 1526.4 1134.72C1526.04 1134.87 1525.66 1135.12 1525.25 1135.46C1524.86 1135.81 1524.45 1136.26 1524.02 1136.83C1523.59 1137.4 1523.11 1138.1 1522.58 1138.92V1152.2C1522.58 1152.32 1522.55 1152.42 1522.49 1152.51C1522.43 1152.59 1522.34 1152.65 1522.2 1152.71C1522.07 1152.77 1521.88 1152.82 1521.64 1152.85C1521.4 1152.88 1521.1 1152.89 1520.72 1152.89C1520.36 1152.89 1520.06 1152.88 1519.82 1152.85C1519.59 1152.82 1519.39 1152.77 1519.24 1152.71C1519.11 1152.65 1519.01 1152.59 1518.95 1152.51C1518.91 1152.42 1518.88 1152.32 1518.88 1152.2V1132.01C1518.88 1131.89 1518.91 1131.79 1518.95 1131.72C1519 1131.63 1519.08 1131.55 1519.22 1131.49C1519.35 1131.42 1519.53 1131.37 1519.74 1131.36C1519.94 1131.33 1520.22 1131.31 1520.57 1131.31C1520.89 1131.31 1521.16 1131.33 1521.37 1131.36C1521.6 1131.37 1521.77 1131.42 1521.89 1131.49C1522.01 1131.55 1522.09 1131.63 1522.14 1131.72C1522.2 1131.79 1522.23 1131.89 1522.23 1132.01V1134.95C1522.78 1134.14 1523.29 1133.48 1523.77 1132.97C1524.27 1132.46 1524.73 1132.07 1525.16 1131.78C1525.6 1131.49 1526.02 1131.28 1526.44 1131.18C1526.88 1131.06 1527.31 1131 1527.74 1131C1527.94 1131 1528.15 1131.01 1528.39 1131.04C1528.65 1131.06 1528.91 1131.1 1529.18 1131.16C1529.45 1131.22 1529.69 1131.28 1529.9 1131.36C1530.12 1131.43 1530.28 1131.51 1530.37 1131.58C1530.46 1131.66 1530.52 1131.73 1530.55 1131.81C1530.58 1131.87 1530.6 1131.95 1530.61 1132.05C1530.64 1132.16 1530.66 1132.32 1530.66 1132.52C1530.67 1132.72 1530.68 1132.99 1530.68 1133.33Z" fill="black"/>
</g>
<rect x="2" y="2" width="2584" height="1745" rx="62" stroke="url(#paint7_linear_437_368)" stroke-width="4"/>
<defs>
<filter id="filter0_f_437_368" x="-2539.04" y="-2401.02" width="5927.03" height="5407.69" filterUnits="userSpaceOnUse" color-interpolation-filters="sRGB">
<feFlood flood-opacity="0" result="BackgroundImageFix"/>
<feBlend mode="normal" in="SourceGraphic" in2="BackgroundImageFix" result="shape"/>
<feGaussianBlur stdDeviation="236.563" result="effect1_foregroundBlur_437_368"/>
</filter>
<linearGradient id="paint0_linear_437_368" x1="193.655" y1="-1846.87" x2="193.655" y2="5258.78" gradientUnits="userSpaceOnUse">
<stop stop-color="#00653C"/>
<stop offset="0.115462" stop-color="#007143"/>
<stop offset="0.200109" stop-color="#007948"/>
<stop offset="0.288114" stop-color="#01CA78"/>
<stop offset="0.310051"/>
<stop offset="0.326263"/>
<stop offset="0.355232" stop-color="#01CA78"/>
<stop offset="0.367166" stop-color="#00824D"/>
<stop offset="0.387225"/>
<stop offset="0.4171"/>
<stop offset="0.770898"/>
</linearGradient>
<linearGradient id="paint1_linear_437_368" x1="1030.05" y1="-1859.43" x2="1030.05" y2="5246.22" gradientUnits="userSpaceOnUse">
<stop offset="0.198108"/>
<stop offset="0.332558"/>
<stop offset="0.472481"/>
<stop offset="0.823689"/>
</linearGradient>
<linearGradient id="paint2_linear_437_368" x1="620.73" y1="-1863.62" x2="620.73" y2="5242.03" gradientUnits="userSpaceOnUse">
<stop stop-color="#00CB79"/>
<stop offset="0.248948" stop-color="#00CB79"/>
<stop offset="0.290627" stop-color="#01CA78"/>
<stop offset="0.306139" stop-color="#0B0B0B"/>
<stop offset="0.332558"/>
<stop offset="0.458731"/>
<stop offset="0.771957"/>
</linearGradient>
<linearGradient id="paint3_linear_437_368" x1="1466.5" y1="-1817.56" x2="1466.5" y2="5288.09" gradientUnits="userSpaceOnUse">
<stop offset="0.298748"/>
<stop offset="0.844263"/>
</linearGradient>
<linearGradient id="paint4_linear_437_368" x1="-4404.18" y1="678.807" x2="2701.47" y2="678.807" gradientUnits="userSpaceOnUse">
<stop offset="0.0157654"/>
<stop offset="0.228246"/>
<stop offset="0.257576" stop-color="#0B0B0B"/>
<stop offset="0.289886" stop-color="#0B0B0B"/>
<stop offset="0.318175" stop-color="#0B0B0B"/>
<stop offset="0.335987" stop-color="#0B0B0B"/>
<stop offset="0.373953" stop-color="#00CB79"/>
<stop offset="0.41285" stop-color="#00CB79"/>
<stop offset="0.427426" stop-color="#0B0B0B"/>
<stop offset="0.452156" stop-color="#0B0B0B"/>
<stop offset="0.471971" stop-color="#00CB79"/>
<stop offset="0.487003" stop-color="#0B0B0B"/>
<stop offset="0.51548" stop-color="#0B0B0B"/>
<stop offset="0.530362" stop-color="#00CB79"/>
<stop offset="0.544707"/>
<stop offset="0.57206"/>
<stop offset="0.588753" stop-color="#01CA78"/>
<stop offset="0.605783"/>
<stop offset="0.632387"/>
<stop offset="0.647144" stop-color="#00CB79"/>
<stop offset="0.664544" stop-color="#00653C"/>
<stop offset="0.68518"/>
<stop offset="0.70899"/>
<stop offset="0.943915"/>
</linearGradient>
<linearGradient id="paint5_linear_437_368" x1="-4404.18" y1="201.078" x2="2701.47" y2="201.078" gradientUnits="userSpaceOnUse">
<stop offset="0.00880216"/>
<stop offset="0.241046"/>
<stop offset="0.270322" stop-color="#00CB79"/>
<stop offset="0.304433" stop-color="#00CB79"/>
<stop offset="0.330737" stop-color="#0B0B0B"/>
<stop offset="0.353393" stop-color="#00CB79"/>
<stop offset="0.374041" stop-color="#0B0B0B"/>
<stop offset="0.395951" stop-color="#0B0B0B"/>
<stop offset="0.41285" stop-color="#00CB79"/>
<stop offset="0.427426" stop-color="#0B0B0B"/>
<stop offset="0.452156" stop-color="#0B0B0B"/>
<stop offset="0.471971" stop-color="#00CB79"/>
<stop offset="0.487003" stop-color="#0B0B0B"/>
<stop offset="0.51548" stop-color="#0B0B0B"/>
<stop offset="0.530362" stop-color="#00CB79"/>
<stop offset="0.544707"/>
<stop offset="0.566143"/>
<stop offset="0.588753" stop-color="#01CA78"/>
<stop offset="0.614614"/>
<stop offset="0.632387"/>
<stop offset="0.647144" stop-color="#01CA78"/>
<stop offset="0.664583"/>
<stop offset="0.676135"/>
<stop offset="0.707653" stop-color="#01CA78"/>
<stop offset="0.720616"/>
<stop offset="0.744745"/>
<stop offset="0.975004"/>
</linearGradient>
<radialGradient id="paint6_radial_437_368" cx="0" cy="0" r="1" gradientUnits="userSpaceOnUse" gradientTransform="translate(-553.875 -347.672) rotate(-123.382) scale(2245 2985.13)">
<stop stop-color="#00653C"/>
<stop offset="1" stop-opacity="0"/>
</radialGradient>
<linearGradient id="paint7_linear_437_368" x1="157.112" y1="107.416" x2="1670.98" y2="2389.27" gradientUnits="userSpaceOnUse">
<stop stop-color="#01CA78"/>
<stop offset="0.0882943" stop-color="#019458" stop-opacity="0.735"/>
<stop offset="0.208483" stop-opacity="0"/>
<stop offset="0.818888" stop-color="#001C11" stop-opacity="0"/>
<stop offset="1" stop-color="#494949"/>
</linearGradient>
<clipPath id="clip0_437_368">
<rect width="2588" height="1749" rx="64" fill="white"/>
</clipPath>
<clipPath id="clip1_437_368">
<rect width="8484.16" height="2196" fill="white" transform="translate(-3557 -212)"/>
</clipPath>
</defs>
</svg>
