<svg width="844" height="596" viewBox="0 0 844 596" fill="none" xmlns="http://www.w3.org/2000/svg">
<rect x="24.1978" y="244.824" width="349.144" height="68.3747" transform="rotate(-41.3957 24.1978 244.824)" fill="white"/>
<rect x="105.767" y="195.57" width="122.861" height="64.1013" transform="rotate(-90 105.767 195.57)" fill="white"/>
<rect x="248.926" y="242.578" width="34.1873" height="34.1873" transform="rotate(-90 248.926 242.578)" fill="white"/>
<rect x="292.729" y="242.578" width="34.1873" height="34.1873" transform="rotate(-90 292.729 242.578)" fill="white"/>
<rect x="292.729" y="286.383" width="34.1873" height="34.1873" transform="rotate(-90 292.729 286.383)" fill="white"/>
<rect x="248.926" y="286.383" width="34.1873" height="34.1873" transform="rotate(-90 248.926 286.383)" fill="white"/>
<rect x="286.221" y="13.9512" width="349.149" height="68.3747" transform="rotate(40.9057 286.221 13.9512)" fill="white"/>
<rect x="395.86" width="369.27" height="61.0134" transform="rotate(40.9057 395.86 0)" fill="white"/>
<rect x="534.601" y="0.0625" width="369.27" height="61.0134" transform="rotate(40.9057 534.601 0.0625)" fill="white"/>
<path d="M155.262 389.926C155.262 398.601 152.271 405.83 146.288 411.614C140.405 417.297 131.381 420.139 119.216 420.139H99.1739V463.664H85.563V359.414H119.216C130.982 359.414 139.907 362.256 145.989 367.94C152.171 373.623 155.262 380.952 155.262 389.926ZM119.216 408.922C126.794 408.922 132.378 407.276 135.968 403.986C139.558 400.695 141.353 396.009 141.353 389.926C141.353 377.063 133.974 370.632 119.216 370.632H99.1739V408.922H119.216ZM183.247 452.745C195.911 442.575 205.832 434.249 213.012 427.767C220.191 421.186 226.224 414.356 231.109 407.276C236.095 400.097 238.588 393.067 238.588 386.187C238.588 379.706 236.993 374.62 233.802 370.931C230.711 367.142 225.675 365.247 218.695 365.247C211.915 365.247 206.63 367.391 202.841 371.679C199.151 375.867 197.157 381.5 196.858 388.58H183.696C184.095 377.412 187.485 368.787 193.867 362.705C200.248 356.622 208.475 353.581 218.546 353.581C228.816 353.581 236.943 356.423 242.925 362.106C249.008 367.79 252.049 375.617 252.049 385.589C252.049 393.865 249.556 401.942 244.571 409.819C239.685 417.597 234.101 424.477 227.819 430.46C221.537 436.343 213.51 443.223 203.738 451.1H255.19V462.468H183.247V452.745ZM321.18 464.711C314.299 464.711 308.117 463.514 302.633 461.121C297.248 458.629 293.011 455.238 289.92 450.951C286.828 446.563 285.233 441.528 285.133 435.844H299.642C300.14 440.73 302.134 444.868 305.624 448.258C309.214 451.549 314.399 453.194 321.18 453.194C327.661 453.194 332.746 451.599 336.436 448.408C340.225 445.117 342.119 440.929 342.119 435.844C342.119 431.856 341.022 428.615 338.829 426.122C336.635 423.629 333.893 421.735 330.602 420.438C327.312 419.142 322.875 417.746 317.291 416.25C310.411 414.456 304.877 412.661 300.689 410.866C296.6 409.071 293.061 406.279 290.069 402.49C287.177 398.601 285.732 393.416 285.732 386.935C285.732 381.251 287.177 376.216 290.069 371.828C292.961 367.441 296.999 364.051 302.184 361.658C307.469 359.264 313.502 358.068 320.282 358.068C330.054 358.068 338.031 360.511 344.213 365.397C350.495 370.283 354.035 376.764 354.833 384.841H339.876C339.377 380.852 337.283 377.362 333.594 374.371C329.904 371.28 325.019 369.734 318.936 369.734C313.252 369.734 308.616 371.23 305.026 374.221C301.436 377.113 299.642 381.201 299.642 386.486C299.642 390.275 300.689 393.366 302.783 395.759C304.976 398.153 307.619 399.997 310.71 401.294C313.901 402.49 318.338 403.886 324.021 405.481C330.902 407.376 336.436 409.271 340.624 411.165C344.812 412.96 348.401 415.802 351.393 419.691C354.384 423.48 355.88 428.665 355.88 435.246C355.88 440.331 354.534 445.117 351.841 449.605C349.149 454.092 345.161 457.731 339.876 460.523C334.591 463.315 328.359 464.711 321.18 464.711ZM447.703 403.088V414.605H388.024V403.088H447.703ZM552.369 359.414V370.482H523.95V463.664H510.34V370.482H481.772V359.414H552.369ZM616.536 359.414C627.904 359.414 637.725 361.558 646.002 365.846C654.377 370.033 660.759 376.066 665.146 383.943C669.634 391.821 671.877 401.094 671.877 411.763C671.877 422.433 669.634 431.706 665.146 439.583C660.759 447.361 654.377 453.344 646.002 457.532C637.725 461.62 627.904 463.664 616.536 463.664H584.08V359.414H616.536ZM616.536 452.446C629.998 452.446 640.268 448.907 647.348 441.827C654.427 434.648 657.967 424.626 657.967 411.763C657.967 398.801 654.377 388.68 647.198 381.401C640.118 374.122 629.898 370.482 616.536 370.482H597.691V452.446H616.536ZM718.398 370.482V405.332H756.389V416.55H718.398V452.446H760.876V463.664H704.787V359.264H760.876V370.482H718.398Z" fill="white"/>
<rect x="48.0762" y="510.734" width="747.848" height="84.4" fill="white"/>
<path d="M206.584 537.392C206.584 537.676 206.569 537.923 206.539 538.132C206.509 538.341 206.457 538.513 206.382 538.648C206.322 538.767 206.24 538.857 206.135 538.917C206.046 538.977 205.941 539.007 205.821 539.007H197.656V564.175C197.656 564.294 197.626 564.399 197.567 564.489C197.507 564.578 197.402 564.653 197.253 564.713C197.103 564.758 196.901 564.795 196.647 564.825C196.408 564.87 196.101 564.892 195.727 564.892C195.368 564.892 195.062 564.87 194.808 564.825C194.553 564.795 194.351 564.758 194.202 564.713C194.052 564.653 193.948 564.578 193.888 564.489C193.828 564.399 193.798 564.294 193.798 564.175V539.007H185.633C185.514 539.007 185.401 538.977 185.297 538.917C185.207 538.857 185.132 538.767 185.072 538.648C185.013 538.513 184.96 538.341 184.915 538.132C184.885 537.923 184.871 537.676 184.871 537.392C184.871 537.108 184.885 536.861 184.915 536.651C184.96 536.427 185.013 536.248 185.072 536.113C185.132 535.978 185.207 535.881 185.297 535.821C185.401 535.762 185.514 535.732 185.633 535.732H205.821C205.941 535.732 206.046 535.762 206.135 535.821C206.24 535.881 206.322 535.978 206.382 536.113C206.457 536.248 206.509 536.427 206.539 536.651C206.569 536.861 206.584 537.108 206.584 537.392ZM222.955 545.332C222.955 545.661 222.948 545.938 222.933 546.162C222.918 546.387 222.888 546.566 222.843 546.701C222.798 546.82 222.738 546.917 222.664 546.992C222.604 547.052 222.514 547.082 222.394 547.082C222.275 547.082 222.125 547.052 221.946 546.992C221.781 546.917 221.587 546.85 221.363 546.79C221.153 546.716 220.914 546.648 220.645 546.588C220.376 546.529 220.084 546.499 219.77 546.499C219.396 546.499 219.03 546.574 218.671 546.723C218.312 546.873 217.931 547.119 217.527 547.463C217.138 547.807 216.727 548.263 216.293 548.832C215.859 549.4 215.381 550.095 214.858 550.918V564.197C214.858 564.317 214.828 564.421 214.768 564.511C214.708 564.586 214.611 564.653 214.476 564.713C214.342 564.773 214.155 564.818 213.915 564.848C213.676 564.877 213.37 564.892 212.996 564.892C212.637 564.892 212.338 564.877 212.098 564.848C211.859 564.818 211.665 564.773 211.515 564.713C211.381 564.653 211.283 564.586 211.224 564.511C211.179 564.421 211.156 564.317 211.156 564.197V544.009C211.156 543.889 211.179 543.792 211.224 543.717C211.269 543.628 211.358 543.553 211.493 543.493C211.627 543.418 211.799 543.373 212.009 543.358C212.218 543.328 212.495 543.314 212.839 543.314C213.168 543.314 213.437 543.328 213.646 543.358C213.871 543.373 214.043 543.418 214.162 543.493C214.282 543.553 214.364 543.628 214.409 543.717C214.469 543.792 214.499 543.889 214.499 544.009V546.947C215.052 546.14 215.568 545.482 216.046 544.973C216.54 544.465 217.003 544.069 217.437 543.785C217.871 543.485 218.297 543.284 218.716 543.179C219.149 543.059 219.583 542.999 220.017 542.999C220.211 542.999 220.428 543.014 220.667 543.044C220.921 543.059 221.183 543.097 221.452 543.157C221.721 543.216 221.961 543.284 222.17 543.358C222.394 543.433 222.551 543.508 222.641 543.583C222.731 543.657 222.791 543.732 222.821 543.807C222.851 543.867 222.873 543.949 222.888 544.054C222.918 544.158 222.933 544.315 222.933 544.525C222.948 544.719 222.955 544.988 222.955 545.332ZM245.114 564.219C245.114 564.399 245.054 564.533 244.934 564.623C244.815 564.713 244.65 564.78 244.441 564.825C244.231 564.87 243.925 564.892 243.521 564.892C243.132 564.892 242.818 564.87 242.579 564.825C242.355 564.78 242.19 564.713 242.085 564.623C241.981 564.533 241.928 564.399 241.928 564.219V562.201C241.046 563.143 240.059 563.876 238.968 564.399C237.891 564.922 236.747 565.184 235.536 565.184C234.474 565.184 233.509 565.042 232.642 564.758C231.79 564.489 231.057 564.092 230.444 563.569C229.845 563.046 229.374 562.403 229.03 561.64C228.702 560.877 228.537 560.01 228.537 559.038C228.537 557.901 228.769 556.914 229.232 556.077C229.696 555.239 230.361 554.544 231.229 553.991C232.096 553.437 233.158 553.026 234.414 552.757C235.67 552.473 237.083 552.331 238.654 552.331H241.435V550.761C241.435 549.983 241.353 549.295 241.188 548.697C241.024 548.099 240.755 547.605 240.381 547.217C240.022 546.813 239.551 546.514 238.968 546.319C238.384 546.11 237.667 546.005 236.814 546.005C235.902 546.005 235.079 546.117 234.347 546.342C233.629 546.551 232.993 546.79 232.44 547.06C231.902 547.314 231.446 547.553 231.072 547.777C230.713 547.987 230.444 548.091 230.264 548.091C230.145 548.091 230.04 548.061 229.95 548.002C229.86 547.942 229.778 547.852 229.703 547.732C229.644 547.613 229.599 547.463 229.569 547.284C229.539 547.089 229.524 546.88 229.524 546.656C229.524 546.282 229.546 545.99 229.591 545.781C229.651 545.557 229.778 545.347 229.973 545.153C230.182 544.958 230.533 544.734 231.027 544.48C231.52 544.211 232.089 543.972 232.732 543.762C233.375 543.538 234.078 543.358 234.84 543.224C235.603 543.074 236.373 542.999 237.151 542.999C238.601 542.999 239.835 543.164 240.852 543.493C241.869 543.822 242.691 544.308 243.319 544.951C243.947 545.579 244.403 546.364 244.688 547.306C244.972 548.248 245.114 549.348 245.114 550.604V564.219ZM241.435 555H238.272C237.255 555 236.373 555.09 235.625 555.269C234.878 555.434 234.257 555.688 233.763 556.032C233.27 556.361 232.904 556.765 232.664 557.243C232.44 557.707 232.328 558.245 232.328 558.858C232.328 559.905 232.657 560.743 233.315 561.371C233.988 561.984 234.922 562.29 236.119 562.29C237.091 562.29 237.988 562.044 238.811 561.55C239.648 561.057 240.523 560.301 241.435 559.285V555ZM271.4 543.964C271.4 544.024 271.392 544.091 271.377 544.166C271.377 544.226 271.37 544.293 271.355 544.368C271.34 544.443 271.317 544.525 271.287 544.615C271.272 544.704 271.25 544.801 271.22 544.906L264.334 564.085C264.274 564.249 264.192 564.384 264.087 564.489C263.997 564.593 263.855 564.676 263.661 564.735C263.466 564.795 263.22 564.833 262.921 564.848C262.621 564.877 262.248 564.892 261.799 564.892C261.35 564.892 260.977 564.877 260.677 564.848C260.378 564.818 260.132 564.773 259.937 564.713C259.758 564.653 259.616 564.571 259.511 564.466C259.406 564.362 259.324 564.234 259.264 564.085L252.4 544.906C252.34 544.727 252.288 544.57 252.243 544.435C252.213 544.3 252.191 544.203 252.176 544.143C252.176 544.069 252.176 544.009 252.176 543.964C252.176 543.844 252.206 543.74 252.266 543.65C252.326 543.56 252.423 543.493 252.557 543.448C252.707 543.388 252.894 543.351 253.118 543.336C253.357 543.321 253.649 543.314 253.993 543.314C254.427 543.314 254.771 543.328 255.025 543.358C255.294 543.373 255.496 543.411 255.63 543.471C255.78 543.53 255.885 543.605 255.944 543.695C256.019 543.785 256.087 543.897 256.146 544.031L261.844 560.675L261.934 560.944L262.001 560.675L267.631 544.031C267.661 543.897 267.713 543.785 267.788 543.695C267.863 543.605 267.968 543.53 268.102 543.471C268.252 543.411 268.446 543.373 268.685 543.358C268.94 543.328 269.269 543.314 269.672 543.314C270.016 543.314 270.3 543.321 270.525 543.336C270.749 543.351 270.921 543.388 271.041 543.448C271.175 543.508 271.265 543.583 271.31 543.672C271.37 543.747 271.4 543.844 271.4 543.964ZM293.827 564.219C293.827 564.399 293.767 564.533 293.648 564.623C293.528 564.713 293.364 564.78 293.154 564.825C292.945 564.87 292.638 564.892 292.235 564.892C291.846 564.892 291.532 564.87 291.293 564.825C291.068 564.78 290.904 564.713 290.799 564.623C290.694 564.533 290.642 564.399 290.642 564.219V562.201C289.76 563.143 288.773 563.876 287.681 564.399C286.604 564.922 285.46 565.184 284.249 565.184C283.187 565.184 282.223 565.042 281.355 564.758C280.503 564.489 279.77 564.092 279.157 563.569C278.559 563.046 278.088 562.403 277.744 561.64C277.415 560.877 277.251 560.01 277.251 559.038C277.251 557.901 277.482 556.914 277.946 556.077C278.41 555.239 279.075 554.544 279.942 553.991C280.81 553.437 281.871 553.026 283.128 552.757C284.384 552.473 285.797 552.331 287.367 552.331H290.149V550.761C290.149 549.983 290.066 549.295 289.902 548.697C289.737 548.099 289.468 547.605 289.094 547.217C288.735 546.813 288.264 546.514 287.681 546.319C287.098 546.11 286.38 546.005 285.528 546.005C284.615 546.005 283.793 546.117 283.06 546.342C282.342 546.551 281.707 546.79 281.154 547.06C280.615 547.314 280.159 547.553 279.785 547.777C279.426 547.987 279.157 548.091 278.978 548.091C278.858 548.091 278.753 548.061 278.664 548.002C278.574 547.942 278.492 547.852 278.417 547.732C278.357 547.613 278.312 547.463 278.282 547.284C278.252 547.089 278.238 546.88 278.238 546.656C278.238 546.282 278.26 545.99 278.305 545.781C278.365 545.557 278.492 545.347 278.686 545.153C278.896 544.958 279.247 544.734 279.74 544.48C280.234 544.211 280.802 543.972 281.445 543.762C282.088 543.538 282.791 543.358 283.554 543.224C284.316 543.074 285.087 542.999 285.864 542.999C287.315 542.999 288.548 543.164 289.565 543.493C290.582 543.822 291.405 544.308 292.033 544.951C292.661 545.579 293.117 546.364 293.401 547.306C293.685 548.248 293.827 549.348 293.827 550.604V564.219ZM290.149 555H286.986C285.969 555 285.087 555.09 284.339 555.269C283.591 555.434 282.971 555.688 282.477 556.032C281.984 556.361 281.617 556.765 281.378 557.243C281.154 557.707 281.041 558.245 281.041 558.858C281.041 559.905 281.37 560.743 282.028 561.371C282.701 561.984 283.636 562.29 284.832 562.29C285.804 562.29 286.702 562.044 287.524 561.55C288.362 561.057 289.236 560.301 290.149 559.285V555ZM321.616 564.197C321.616 564.317 321.586 564.421 321.526 564.511C321.481 564.586 321.392 564.653 321.257 564.713C321.123 564.773 320.943 564.818 320.719 564.848C320.509 564.877 320.248 564.892 319.934 564.892C319.59 564.892 319.306 564.877 319.081 564.848C318.872 564.818 318.7 564.773 318.565 564.713C318.446 564.653 318.363 564.586 318.319 564.511C318.274 564.421 318.251 564.317 318.251 564.197V561.528C317.1 562.799 315.963 563.726 314.842 564.309C313.72 564.892 312.584 565.184 311.432 565.184C310.086 565.184 308.95 564.96 308.023 564.511C307.11 564.062 306.37 563.457 305.802 562.694C305.234 561.917 304.822 561.019 304.568 560.002C304.329 558.971 304.209 557.722 304.209 556.256V544.009C304.209 543.889 304.232 543.792 304.277 543.717C304.336 543.628 304.441 543.553 304.591 543.493C304.74 543.418 304.935 543.373 305.174 543.358C305.413 543.328 305.712 543.314 306.071 543.314C306.43 543.314 306.729 543.328 306.968 543.358C307.208 543.373 307.395 543.418 307.529 543.493C307.679 543.553 307.783 543.628 307.843 543.717C307.903 543.792 307.933 543.889 307.933 544.009V555.763C307.933 556.944 308.015 557.894 308.18 558.612C308.359 559.314 308.621 559.92 308.965 560.429C309.324 560.922 309.772 561.311 310.311 561.595C310.849 561.864 311.477 561.999 312.195 561.999C313.122 561.999 314.042 561.67 314.954 561.012C315.881 560.354 316.861 559.389 317.892 558.118V544.009C317.892 543.889 317.915 543.792 317.96 543.717C318.02 543.628 318.124 543.553 318.274 543.493C318.423 543.418 318.61 543.373 318.835 543.358C319.074 543.328 319.38 543.314 319.754 543.314C320.113 543.314 320.412 543.328 320.651 543.358C320.891 543.373 321.078 543.418 321.212 543.493C321.347 543.553 321.444 543.628 321.504 543.717C321.579 543.792 321.616 543.889 321.616 544.009V564.197ZM347.431 563.771C347.55 563.98 347.61 564.16 347.61 564.309C347.61 564.444 347.535 564.556 347.386 564.646C347.251 564.735 347.035 564.795 346.735 564.825C346.451 564.87 346.077 564.892 345.614 564.892C345.165 564.892 344.806 564.877 344.537 564.848C344.283 564.833 344.074 564.803 343.909 564.758C343.76 564.698 343.64 564.631 343.55 564.556C343.475 564.466 343.408 564.369 343.348 564.264L338.503 556.256L333.68 564.264C333.621 564.369 333.546 564.466 333.456 564.556C333.381 564.631 333.262 564.698 333.097 564.758C332.948 564.803 332.746 564.833 332.492 564.848C332.237 564.877 331.901 564.892 331.482 564.892C331.049 564.892 330.69 564.87 330.405 564.825C330.136 564.795 329.934 564.735 329.8 564.646C329.68 564.556 329.62 564.444 329.62 564.309C329.635 564.16 329.71 563.98 329.845 563.771L336.125 553.924L330.181 544.435C330.062 544.226 329.994 544.054 329.979 543.919C329.979 543.77 330.047 543.65 330.181 543.56C330.331 543.456 330.548 543.388 330.832 543.358C331.131 543.328 331.52 543.314 331.998 543.314C332.432 543.314 332.776 543.328 333.03 543.358C333.299 543.373 333.508 543.403 333.658 543.448C333.808 543.493 333.92 543.553 333.994 543.628C334.069 543.702 334.137 543.792 334.196 543.897L338.795 551.411L343.46 543.897C343.52 543.807 343.588 543.725 343.662 543.65C343.737 543.575 343.834 543.515 343.954 543.471C344.089 543.411 344.268 543.373 344.492 543.358C344.732 543.328 345.053 543.314 345.457 543.314C345.891 543.314 346.242 543.328 346.511 543.358C346.795 543.388 347.005 543.448 347.139 543.538C347.274 543.613 347.334 543.725 347.319 543.874C347.304 544.024 347.229 544.211 347.094 544.435L341.195 553.811L347.431 563.771ZM387.105 564.197C387.105 564.317 387.075 564.421 387.015 564.511C386.97 564.601 386.88 564.676 386.746 564.735C386.626 564.78 386.462 564.818 386.252 564.848C386.043 564.877 385.789 564.892 385.489 564.892C385.175 564.892 384.914 564.877 384.704 564.848C384.495 564.818 384.323 564.78 384.188 564.735C384.054 564.676 383.957 564.601 383.897 564.511C383.837 564.421 383.807 564.317 383.807 564.197V561.528C382.745 562.679 381.639 563.576 380.487 564.219C379.351 564.862 378.102 565.184 376.741 565.184C375.261 565.184 373.997 564.9 372.95 564.332C371.904 563.748 371.051 562.971 370.393 561.999C369.75 561.012 369.279 559.86 368.98 558.544C368.681 557.213 368.531 555.815 368.531 554.35C368.531 552.615 368.718 551.052 369.092 549.662C369.466 548.256 370.019 547.06 370.752 546.073C371.485 545.086 372.39 544.33 373.466 543.807C374.558 543.269 375.814 542.999 377.235 542.999C378.416 542.999 379.493 543.261 380.465 543.785C381.452 544.293 382.424 545.048 383.381 546.05V534.319C383.381 534.214 383.403 534.117 383.448 534.027C383.508 533.922 383.613 533.848 383.762 533.803C383.912 533.743 384.099 533.698 384.323 533.668C384.562 533.623 384.861 533.601 385.22 533.601C385.594 533.601 385.901 533.623 386.14 533.668C386.379 533.698 386.566 533.743 386.701 533.803C386.835 533.848 386.933 533.922 386.992 534.027C387.067 534.117 387.105 534.214 387.105 534.319V564.197ZM383.381 549.998C382.379 548.757 381.407 547.815 380.465 547.172C379.538 546.514 378.566 546.185 377.549 546.185C376.607 546.185 375.807 546.409 375.149 546.858C374.491 547.306 373.952 547.897 373.534 548.63C373.13 549.362 372.831 550.192 372.636 551.12C372.457 552.047 372.367 552.989 372.367 553.946C372.367 554.963 372.442 555.957 372.592 556.929C372.756 557.901 373.033 558.769 373.421 559.531C373.81 560.279 374.326 560.885 374.969 561.348C375.612 561.797 376.42 562.021 377.392 562.021C377.885 562.021 378.356 561.954 378.805 561.819C379.269 561.685 379.74 561.46 380.218 561.146C380.697 560.832 381.198 560.429 381.721 559.935C382.244 559.427 382.798 558.806 383.381 558.073V549.998ZM414.848 553.228C414.848 553.811 414.699 554.23 414.4 554.484C414.116 554.724 413.787 554.843 413.413 554.843H400.178C400.178 555.965 400.291 556.974 400.515 557.871C400.739 558.769 401.113 559.539 401.636 560.182C402.16 560.825 402.84 561.318 403.678 561.662C404.515 562.006 405.539 562.178 406.751 562.178C407.708 562.178 408.56 562.103 409.308 561.954C410.056 561.789 410.699 561.61 411.237 561.416C411.79 561.221 412.239 561.049 412.583 560.9C412.942 560.735 413.211 560.653 413.39 560.653C413.495 560.653 413.585 560.683 413.66 560.743C413.749 560.787 413.817 560.862 413.861 560.967C413.906 561.072 413.936 561.221 413.951 561.416C413.981 561.595 413.996 561.819 413.996 562.088C413.996 562.283 413.989 562.455 413.974 562.604C413.959 562.739 413.936 562.866 413.906 562.986C413.891 563.09 413.854 563.188 413.794 563.277C413.749 563.367 413.682 563.457 413.592 563.547C413.518 563.621 413.278 563.756 412.874 563.95C412.471 564.13 411.947 564.309 411.304 564.489C410.661 564.668 409.914 564.825 409.061 564.96C408.224 565.109 407.326 565.184 406.369 565.184C404.71 565.184 403.251 564.952 401.995 564.489C400.754 564.025 399.707 563.337 398.855 562.425C398.003 561.513 397.36 560.369 396.926 558.993C396.492 557.617 396.275 556.017 396.275 554.193C396.275 552.458 396.5 550.903 396.948 549.527C397.397 548.136 398.04 546.962 398.877 546.005C399.73 545.033 400.754 544.293 401.95 543.785C403.147 543.261 404.485 542.999 405.966 542.999C407.551 542.999 408.897 543.254 410.003 543.762C411.125 544.271 412.045 544.958 412.762 545.826C413.48 546.678 414.004 547.688 414.333 548.854C414.676 550.006 414.848 551.239 414.848 552.555V553.228ZM411.125 552.129C411.17 550.185 410.736 548.66 409.824 547.553C408.927 546.446 407.588 545.893 405.809 545.893C404.896 545.893 404.096 546.065 403.408 546.409C402.721 546.753 402.145 547.209 401.681 547.777C401.218 548.346 400.859 549.011 400.605 549.774C400.35 550.521 400.208 551.307 400.178 552.129H411.125ZM441.961 564.197C441.961 564.317 441.931 564.421 441.871 564.511C441.811 564.586 441.714 564.653 441.579 564.713C441.445 564.773 441.258 564.818 441.019 564.848C440.779 564.877 440.473 564.892 440.099 564.892C439.74 564.892 439.441 564.877 439.202 564.848C438.962 564.818 438.768 564.773 438.618 564.713C438.484 564.653 438.387 564.586 438.327 564.511C438.282 564.421 438.259 564.317 438.259 564.197V534.229C438.259 534.109 438.282 534.005 438.327 533.915C438.387 533.825 438.484 533.75 438.618 533.691C438.768 533.631 438.962 533.586 439.202 533.556C439.441 533.526 439.74 533.511 440.099 533.511C440.473 533.511 440.779 533.526 441.019 533.556C441.258 533.586 441.445 533.631 441.579 533.691C441.714 533.75 441.811 533.825 441.871 533.915C441.931 534.005 441.961 534.109 441.961 534.229V564.197ZM457.367 535.193C457.367 535.657 457.345 536.083 457.3 536.472C457.255 536.846 457.18 537.212 457.076 537.571C456.971 537.915 456.829 538.259 456.65 538.603C456.485 538.932 456.276 539.276 456.021 539.635L452.948 544.256C452.874 544.36 452.784 544.458 452.679 544.547C452.589 544.637 452.47 544.712 452.32 544.772C452.186 544.816 452.021 544.854 451.827 544.884C451.647 544.899 451.416 544.906 451.131 544.906C450.877 544.906 450.66 544.899 450.481 544.884C450.316 544.854 450.197 544.816 450.122 544.772C450.047 544.712 450.002 544.637 449.987 544.547C449.987 544.458 450.017 544.345 450.077 544.211L453.061 538.042V535.193C453.061 534.805 453.098 534.491 453.173 534.251C453.262 534.012 453.397 533.825 453.576 533.691C453.756 533.556 453.98 533.466 454.249 533.421C454.519 533.376 454.848 533.354 455.236 533.354C455.61 533.354 455.932 533.376 456.201 533.421C456.47 533.466 456.687 533.556 456.851 533.691C457.031 533.825 457.158 534.012 457.233 534.251C457.322 534.491 457.367 534.805 457.367 535.193ZM484.214 563.165C484.214 563.434 484.199 563.674 484.169 563.883C484.139 564.077 484.087 564.242 484.012 564.376C483.937 564.511 483.848 564.608 483.743 564.668C483.653 564.728 483.549 564.758 483.429 564.758H469.499C469.155 564.758 468.826 564.646 468.512 564.421C468.213 564.182 468.064 563.771 468.064 563.188V537.302C468.064 536.719 468.213 536.315 468.512 536.091C468.826 535.851 469.155 535.732 469.499 535.732H483.272C483.392 535.732 483.496 535.762 483.586 535.821C483.691 535.881 483.773 535.978 483.833 536.113C483.892 536.248 483.937 536.42 483.967 536.629C484.012 536.823 484.035 537.07 484.035 537.369C484.035 537.638 484.012 537.878 483.967 538.087C483.937 538.281 483.892 538.446 483.833 538.581C483.773 538.7 483.691 538.79 483.586 538.85C483.496 538.91 483.392 538.939 483.272 538.939H471.922V548.047H481.657C481.776 548.047 481.881 548.084 481.971 548.159C482.076 548.218 482.158 548.308 482.218 548.428C482.292 548.547 482.345 548.712 482.375 548.921C482.405 549.131 482.42 549.377 482.42 549.662C482.42 549.931 482.405 550.163 482.375 550.357C482.345 550.551 482.292 550.708 482.218 550.828C482.158 550.948 482.076 551.037 481.971 551.097C481.881 551.142 481.776 551.164 481.657 551.164H471.922V561.55H483.429C483.549 561.55 483.653 561.58 483.743 561.64C483.848 561.7 483.937 561.797 484.012 561.931C484.087 562.051 484.139 562.216 484.169 562.425C484.199 562.619 484.214 562.866 484.214 563.165ZM510.365 572.205C510.365 572.325 510.328 572.429 510.253 572.519C510.193 572.609 510.096 572.684 509.962 572.743C509.827 572.803 509.64 572.848 509.401 572.878C509.161 572.908 508.862 572.923 508.503 572.923C508.13 572.923 507.823 572.908 507.584 572.878C507.359 572.848 507.173 572.803 507.023 572.743C506.873 572.684 506.769 572.609 506.709 572.519C506.664 572.429 506.642 572.325 506.642 572.205V561.864C506.029 562.477 505.445 563.001 504.892 563.434C504.339 563.853 503.793 564.197 503.255 564.466C502.716 564.72 502.17 564.9 501.617 565.005C501.079 565.124 500.518 565.184 499.935 565.184C498.469 565.184 497.221 564.9 496.189 564.332C495.157 563.748 494.312 562.971 493.654 561.999C493.011 561.012 492.54 559.86 492.241 558.544C491.942 557.213 491.792 555.815 491.792 554.35C491.792 552.615 491.979 551.052 492.353 549.662C492.727 548.256 493.28 547.06 494.013 546.073C494.761 545.086 495.673 544.33 496.75 543.807C497.841 543.269 499.097 542.999 500.518 542.999C501.116 542.999 501.677 543.067 502.2 543.201C502.724 543.321 503.24 543.523 503.748 543.807C504.271 544.076 504.795 544.435 505.318 544.884C505.857 545.317 506.44 545.841 507.068 546.454V544.009C507.068 543.874 507.098 543.77 507.158 543.695C507.217 543.605 507.315 543.53 507.449 543.471C507.584 543.411 507.756 543.373 507.965 543.358C508.174 543.328 508.436 543.314 508.75 543.314C509.049 543.314 509.304 543.328 509.513 543.358C509.722 543.373 509.887 543.411 510.006 543.471C510.141 543.53 510.231 543.605 510.276 543.695C510.335 543.77 510.365 543.874 510.365 544.009V572.205ZM506.642 549.998C505.64 548.757 504.668 547.815 503.726 547.172C502.798 546.514 501.826 546.185 500.81 546.185C499.867 546.185 499.067 546.409 498.409 546.858C497.751 547.306 497.213 547.897 496.794 548.63C496.391 549.362 496.092 550.192 495.897 551.12C495.718 552.047 495.628 552.989 495.628 553.946C495.628 554.978 495.703 555.98 495.852 556.952C496.017 557.924 496.293 558.784 496.682 559.531C497.071 560.279 497.587 560.885 498.23 561.348C498.873 561.797 499.681 562.021 500.653 562.021C501.146 562.021 501.617 561.954 502.066 561.819C502.529 561.685 503 561.46 503.479 561.146C503.957 560.832 504.458 560.429 504.982 559.935C505.505 559.427 506.058 558.806 506.642 558.073V549.998ZM538.176 564.197C538.176 564.317 538.147 564.421 538.087 564.511C538.042 564.586 537.952 564.653 537.818 564.713C537.683 564.773 537.504 564.818 537.279 564.848C537.07 564.877 536.808 564.892 536.494 564.892C536.15 564.892 535.866 564.877 535.642 564.848C535.432 564.818 535.26 564.773 535.126 564.713C535.006 564.653 534.924 564.586 534.879 564.511C534.834 564.421 534.812 564.317 534.812 564.197V561.528C533.66 562.799 532.524 563.726 531.402 564.309C530.281 564.892 529.144 565.184 527.993 565.184C526.647 565.184 525.51 564.96 524.583 564.511C523.671 564.062 522.931 563.457 522.362 562.694C521.794 561.917 521.383 561.019 521.129 560.002C520.889 558.971 520.77 557.722 520.77 556.256V544.009C520.77 543.889 520.792 543.792 520.837 543.717C520.897 543.628 521.002 543.553 521.151 543.493C521.301 543.418 521.495 543.373 521.734 543.358C521.974 543.328 522.273 543.314 522.632 543.314C522.99 543.314 523.29 543.328 523.529 543.358C523.768 543.373 523.955 543.418 524.09 543.493C524.239 543.553 524.344 543.628 524.404 543.717C524.463 543.792 524.493 543.889 524.493 544.009V555.763C524.493 556.944 524.576 557.894 524.74 558.612C524.92 559.314 525.181 559.92 525.525 560.429C525.884 560.922 526.333 561.311 526.871 561.595C527.409 561.864 528.038 561.999 528.755 561.999C529.682 561.999 530.602 561.67 531.514 561.012C532.442 560.354 533.421 559.389 534.453 558.118V544.009C534.453 543.889 534.475 543.792 534.52 543.717C534.58 543.628 534.685 543.553 534.834 543.493C534.984 543.418 535.171 543.373 535.395 543.358C535.634 543.328 535.941 543.314 536.315 543.314C536.674 543.314 536.973 543.328 537.212 543.358C537.451 543.373 537.638 543.418 537.773 543.493C537.907 543.553 538.004 543.628 538.064 543.717C538.139 543.792 538.176 543.889 538.176 544.009V564.197ZM563.902 564.219C563.902 564.399 563.842 564.533 563.722 564.623C563.602 564.713 563.438 564.78 563.229 564.825C563.019 564.87 562.713 564.892 562.309 564.892C561.92 564.892 561.606 564.87 561.367 564.825C561.143 564.78 560.978 564.713 560.873 564.623C560.769 564.533 560.716 564.399 560.716 564.219V562.201C559.834 563.143 558.847 563.876 557.755 564.399C556.679 564.922 555.535 565.184 554.323 565.184C553.262 565.184 552.297 565.042 551.43 564.758C550.577 564.489 549.845 564.092 549.232 563.569C548.633 563.046 548.162 562.403 547.818 561.64C547.489 560.877 547.325 560.01 547.325 559.038C547.325 557.901 547.557 556.914 548.02 556.077C548.484 555.239 549.149 554.544 550.017 553.991C550.884 553.437 551.946 553.026 553.202 552.757C554.458 552.473 555.871 552.331 557.441 552.331H560.223V550.761C560.223 549.983 560.141 549.295 559.976 548.697C559.812 548.099 559.542 547.605 559.169 547.217C558.81 546.813 558.339 546.514 557.755 546.319C557.172 546.11 556.454 546.005 555.602 546.005C554.69 546.005 553.867 546.117 553.135 546.342C552.417 546.551 551.781 546.79 551.228 547.06C550.69 547.314 550.233 547.553 549.86 547.777C549.501 547.987 549.232 548.091 549.052 548.091C548.932 548.091 548.828 548.061 548.738 548.002C548.648 547.942 548.566 547.852 548.491 547.732C548.431 547.613 548.387 547.463 548.357 547.284C548.327 547.089 548.312 546.88 548.312 546.656C548.312 546.282 548.334 545.99 548.379 545.781C548.439 545.557 548.566 545.347 548.76 545.153C548.97 544.958 549.321 544.734 549.815 544.48C550.308 544.211 550.876 543.972 551.519 543.762C552.163 543.538 552.865 543.358 553.628 543.224C554.391 543.074 555.161 542.999 555.938 542.999C557.389 542.999 558.623 543.164 559.64 543.493C560.656 543.822 561.479 544.308 562.107 544.951C562.735 545.579 563.191 546.364 563.475 547.306C563.759 548.248 563.902 549.348 563.902 550.604V564.219ZM560.223 555H557.06C556.043 555 555.161 555.09 554.413 555.269C553.665 555.434 553.045 555.688 552.551 556.032C552.058 556.361 551.691 556.765 551.452 557.243C551.228 557.707 551.116 558.245 551.116 558.858C551.116 559.905 551.445 560.743 552.103 561.371C552.776 561.984 553.71 562.29 554.907 562.29C555.879 562.29 556.776 562.044 557.598 561.55C558.436 561.057 559.311 560.301 560.223 559.285V555ZM584.445 562.717C584.445 563.15 584.415 563.494 584.355 563.748C584.295 564.003 584.206 564.19 584.086 564.309C583.966 564.429 583.787 564.541 583.548 564.646C583.308 564.75 583.032 564.833 582.718 564.892C582.419 564.967 582.097 565.027 581.753 565.072C581.409 565.117 581.065 565.139 580.721 565.139C579.675 565.139 578.777 565.005 578.03 564.735C577.282 564.451 576.669 564.033 576.19 563.479C575.712 562.911 575.36 562.201 575.136 561.348C574.927 560.481 574.822 559.464 574.822 558.298V546.499H571.996C571.771 546.499 571.592 546.379 571.457 546.14C571.323 545.901 571.255 545.512 571.255 544.973C571.255 544.689 571.27 544.45 571.3 544.256C571.345 544.061 571.397 543.904 571.457 543.785C571.517 543.65 571.592 543.56 571.682 543.515C571.786 543.456 571.898 543.426 572.018 543.426H574.822V538.625C574.822 538.521 574.844 538.424 574.889 538.334C574.949 538.244 575.046 538.169 575.181 538.109C575.33 538.035 575.525 537.982 575.764 537.952C576.003 537.923 576.302 537.908 576.661 537.908C577.035 537.908 577.342 537.923 577.581 537.952C577.82 537.982 578.007 538.035 578.142 538.109C578.276 538.169 578.374 538.244 578.433 538.334C578.493 538.424 578.523 538.521 578.523 538.625V543.426H583.705C583.824 543.426 583.929 543.456 584.019 543.515C584.109 543.56 584.183 543.65 584.243 543.785C584.318 543.904 584.37 544.061 584.4 544.256C584.43 544.45 584.445 544.689 584.445 544.973C584.445 545.512 584.378 545.901 584.243 546.14C584.109 546.379 583.929 546.499 583.705 546.499H578.523V557.759C578.523 559.15 578.725 560.204 579.129 560.922C579.548 561.625 580.288 561.976 581.35 561.976C581.693 561.976 582 561.946 582.269 561.887C582.538 561.812 582.778 561.737 582.987 561.662C583.196 561.588 583.376 561.52 583.525 561.46C583.675 561.386 583.809 561.348 583.929 561.348C584.004 561.348 584.071 561.371 584.131 561.416C584.206 561.445 584.258 561.513 584.288 561.617C584.333 561.722 584.37 561.864 584.4 562.044C584.43 562.223 584.445 562.447 584.445 562.717ZM609.744 553.228C609.744 553.811 609.594 554.23 609.295 554.484C609.011 554.724 608.682 554.843 608.308 554.843H595.074C595.074 555.965 595.186 556.974 595.41 557.871C595.635 558.769 596.008 559.539 596.532 560.182C597.055 560.825 597.736 561.318 598.573 561.662C599.411 562.006 600.435 562.178 601.646 562.178C602.603 562.178 603.456 562.103 604.203 561.954C604.951 561.789 605.594 561.61 606.132 561.416C606.686 561.221 607.134 561.049 607.478 560.9C607.837 560.735 608.106 560.653 608.286 560.653C608.391 560.653 608.48 560.683 608.555 560.743C608.645 560.787 608.712 560.862 608.757 560.967C608.802 561.072 608.832 561.221 608.847 561.416C608.877 561.595 608.891 561.819 608.891 562.088C608.891 562.283 608.884 562.455 608.869 562.604C608.854 562.739 608.832 562.866 608.802 562.986C608.787 563.09 608.749 563.188 608.69 563.277C608.645 563.367 608.577 563.457 608.488 563.547C608.413 563.621 608.174 563.756 607.77 563.95C607.366 564.13 606.843 564.309 606.2 564.489C605.557 564.668 604.809 564.825 603.957 564.96C603.119 565.109 602.222 565.184 601.265 565.184C599.605 565.184 598.147 564.952 596.891 564.489C595.65 564.025 594.603 563.337 593.75 562.425C592.898 561.513 592.255 560.369 591.821 558.993C591.388 557.617 591.171 556.017 591.171 554.193C591.171 552.458 591.395 550.903 591.844 549.527C592.292 548.136 592.935 546.962 593.773 546.005C594.625 545.033 595.65 544.293 596.846 543.785C598.042 543.261 599.381 542.999 600.861 542.999C602.446 542.999 603.792 543.254 604.899 543.762C606.02 544.271 606.94 544.958 607.658 545.826C608.376 546.678 608.899 547.688 609.228 548.854C609.572 550.006 609.744 551.239 609.744 552.555V553.228ZM606.02 552.129C606.065 550.185 605.631 548.66 604.719 547.553C603.822 546.446 602.484 545.893 600.704 545.893C599.792 545.893 598.992 546.065 598.304 546.409C597.616 546.753 597.04 547.209 596.577 547.777C596.113 548.346 595.754 549.011 595.5 549.774C595.246 550.521 595.104 551.307 595.074 552.129H606.02ZM636.366 564.197C636.366 564.317 636.336 564.421 636.276 564.511C636.232 564.586 636.142 564.653 636.007 564.713C635.873 564.773 635.693 564.818 635.469 564.848C635.26 564.877 634.998 564.892 634.684 564.892C634.34 564.892 634.056 564.877 633.831 564.848C633.622 564.818 633.45 564.773 633.316 564.713C633.196 564.653 633.114 564.586 633.069 564.511C633.024 564.421 633.002 564.317 633.002 564.197V561.528C631.85 562.799 630.714 563.726 629.592 564.309C628.47 564.892 627.334 565.184 626.182 565.184C624.837 565.184 623.7 564.96 622.773 564.511C621.861 564.062 621.12 563.457 620.552 562.694C619.984 561.917 619.573 561.019 619.318 560.002C619.079 558.971 618.96 557.722 618.96 556.256V544.009C618.96 543.889 618.982 543.792 619.027 543.717C619.087 543.628 619.191 543.553 619.341 543.493C619.49 543.418 619.685 543.373 619.924 543.358C620.163 543.328 620.462 543.314 620.821 543.314C621.18 543.314 621.479 543.328 621.719 543.358C621.958 543.373 622.145 543.418 622.279 543.493C622.429 543.553 622.534 543.628 622.593 543.717C622.653 543.792 622.683 543.889 622.683 544.009V555.763C622.683 556.944 622.765 557.894 622.93 558.612C623.109 559.314 623.371 559.92 623.715 560.429C624.074 560.922 624.522 561.311 625.061 561.595C625.599 561.864 626.227 561.999 626.945 561.999C627.872 561.999 628.792 561.67 629.704 561.012C630.631 560.354 631.611 559.389 632.643 558.118V544.009C632.643 543.889 632.665 543.792 632.71 543.717C632.77 543.628 632.874 543.553 633.024 543.493C633.173 543.418 633.36 543.373 633.585 543.358C633.824 543.328 634.131 543.314 634.504 543.314C634.863 543.314 635.162 543.328 635.402 543.358C635.641 543.373 635.828 543.418 635.962 543.493C636.097 543.553 636.194 543.628 636.254 543.717C636.329 543.792 636.366 543.889 636.366 544.009V564.197ZM658.682 545.332C658.682 545.661 658.674 545.938 658.659 546.162C658.644 546.387 658.614 546.566 658.57 546.701C658.525 546.82 658.465 546.917 658.39 546.992C658.33 547.052 658.241 547.082 658.121 547.082C658.001 547.082 657.852 547.052 657.672 546.992C657.508 546.917 657.313 546.85 657.089 546.79C656.88 546.716 656.64 546.648 656.371 546.588C656.102 546.529 655.81 546.499 655.496 546.499C655.123 546.499 654.756 546.574 654.397 546.723C654.038 546.873 653.657 547.119 653.253 547.463C652.865 547.807 652.453 548.263 652.02 548.832C651.586 549.4 651.107 550.095 650.584 550.918V564.197C650.584 564.317 650.554 564.421 650.494 564.511C650.434 564.586 650.337 564.653 650.203 564.713C650.068 564.773 649.881 564.818 649.642 564.848C649.403 564.877 649.096 564.892 648.722 564.892C648.363 564.892 648.064 564.877 647.825 564.848C647.586 564.818 647.391 564.773 647.242 564.713C647.107 564.653 647.01 564.586 646.95 564.511C646.905 564.421 646.883 564.317 646.883 564.197V544.009C646.883 543.889 646.905 543.792 646.95 543.717C646.995 543.628 647.085 543.553 647.219 543.493C647.354 543.418 647.526 543.373 647.735 543.358C647.945 543.328 648.221 543.314 648.565 543.314C648.894 543.314 649.163 543.328 649.373 543.358C649.597 543.373 649.769 543.418 649.889 543.493C650.008 543.553 650.091 543.628 650.135 543.717C650.195 543.792 650.225 543.889 650.225 544.009V546.947C650.778 546.14 651.294 545.482 651.773 544.973C652.266 544.465 652.73 544.069 653.164 543.785C653.597 543.485 654.023 543.284 654.442 543.179C654.876 543.059 655.31 542.999 655.743 542.999C655.938 542.999 656.154 543.014 656.394 543.044C656.648 543.059 656.91 543.097 657.179 543.157C657.448 543.216 657.687 543.284 657.897 543.358C658.121 543.433 658.278 543.508 658.368 543.583C658.457 543.657 658.517 543.732 658.547 543.807C658.577 543.867 658.599 543.949 658.614 544.054C658.644 544.158 658.659 544.315 658.659 544.525C658.674 544.719 658.682 544.988 658.682 545.332Z" fill="black"/>
</svg>
